<?xml version="1.0" encoding="UTF-8"?>
<!DOCTYPE svg  PUBLIC '-//W3C//DTD SVG 1.1//EN'  'http://www.w3.org/Graphics/SVG/1.1/DTD/svg11.dtd'>
<!-- Created with matplotlib (https://matplotlib.org/) -->
<svg width="432pt" height="216pt" version="1.1" viewBox="0 0 432 216" xmlns="http://www.w3.org/2000/svg" xmlns:xlink="http://www.w3.org/1999/xlink">
 <defs>
  <style type="text/css">*{stroke-linecap:butt;stroke-linejoin:round;}</style>
 </defs>
 <g id="figure_1">
  <g id="patch_1">
   <path d="m0 216h432v-216h-432z" fill="#fff"/>
  </g>
  <g id="axes_1">
   <g id="patch_2">
    <path d="m0.432 194.4h207.28v-194.18h-207.28z" fill="#fff"/>
   </g>
   <g id="PathCollection_1">
    <defs>
     <path id="m81559f5191" d="m-3 3 6-6m-6 0 6 6" stroke="#00f" stroke-opacity=".8" stroke-width="1.5"/>
    </defs>
    <g clip-path="url(#p176aafc6b7)" fill="#0000ff" fill-opacity=".8" stroke="#0000ff" stroke-opacity=".8" stroke-width="1.5">
     <use x="28.237441" y="175.189283" xlink:href="#m81559f5191"/>
     <use x="28.237441" y="175.189283" xlink:href="#m81559f5191"/>
     <use x="23.6415" y="175.189283" xlink:href="#m81559f5191"/>
     <use x="32.833382" y="175.189283" xlink:href="#m81559f5191"/>
     <use x="28.237441" y="175.189283" xlink:href="#m81559f5191"/>
     <use x="42.025263" y="154.420941" xlink:href="#m81559f5191"/>
     <use x="28.237441" y="164.805112" xlink:href="#m81559f5191"/>
     <use x="32.833382" y="175.189283" xlink:href="#m81559f5191"/>
     <use x="28.237441" y="175.189283" xlink:href="#m81559f5191"/>
     <use x="32.833382" y="185.573455" xlink:href="#m81559f5191"/>
     <use x="32.833382" y="175.189283" xlink:href="#m81559f5191"/>
     <use x="37.429322" y="175.189283" xlink:href="#m81559f5191"/>
     <use x="28.237441" y="185.573455" xlink:href="#m81559f5191"/>
     <use x="14.449619" y="185.573455" xlink:href="#m81559f5191"/>
     <use x="19.04556" y="175.189283" xlink:href="#m81559f5191"/>
     <use x="32.833382" y="154.420941" xlink:href="#m81559f5191"/>
     <use x="23.6415" y="154.420941" xlink:href="#m81559f5191"/>
     <use x="28.237441" y="164.805112" xlink:href="#m81559f5191"/>
     <use x="42.025263" y="164.805112" xlink:href="#m81559f5191"/>
     <use x="32.833382" y="164.805112" xlink:href="#m81559f5191"/>
     <use x="42.025263" y="175.189283" xlink:href="#m81559f5191"/>
     <use x="32.833382" y="154.420941" xlink:href="#m81559f5191"/>
     <use x="9.853678" y="175.189283" xlink:href="#m81559f5191"/>
     <use x="42.025263" y="144.03677" xlink:href="#m81559f5191"/>
     <use x="51.217144" y="175.189283" xlink:href="#m81559f5191"/>
     <use x="37.429322" y="175.189283" xlink:href="#m81559f5191"/>
     <use x="37.429322" y="154.420941" xlink:href="#m81559f5191"/>
     <use x="32.833382" y="175.189283" xlink:href="#m81559f5191"/>
     <use x="28.237441" y="175.189283" xlink:href="#m81559f5191"/>
     <use x="37.429322" y="175.189283" xlink:href="#m81559f5191"/>
     <use x="37.429322" y="175.189283" xlink:href="#m81559f5191"/>
     <use x="32.833382" y="154.420941" xlink:href="#m81559f5191"/>
     <use x="32.833382" y="185.573455" xlink:href="#m81559f5191"/>
     <use x="28.237441" y="175.189283" xlink:href="#m81559f5191"/>
     <use x="32.833382" y="175.189283" xlink:href="#m81559f5191"/>
     <use x="19.04556" y="175.189283" xlink:href="#m81559f5191"/>
     <use x="23.6415" y="175.189283" xlink:href="#m81559f5191"/>
     <use x="28.237441" y="185.573455" xlink:href="#m81559f5191"/>
     <use x="23.6415" y="175.189283" xlink:href="#m81559f5191"/>
     <use x="32.833382" y="175.189283" xlink:href="#m81559f5191"/>
     <use x="23.6415" y="164.805112" xlink:href="#m81559f5191"/>
     <use x="23.6415" y="164.805112" xlink:href="#m81559f5191"/>
     <use x="23.6415" y="175.189283" xlink:href="#m81559f5191"/>
     <use x="37.429322" y="133.652599" xlink:href="#m81559f5191"/>
     <use x="51.217144" y="154.420941" xlink:href="#m81559f5191"/>
     <use x="28.237441" y="164.805112" xlink:href="#m81559f5191"/>
     <use x="37.429322" y="175.189283" xlink:href="#m81559f5191"/>
     <use x="28.237441" y="175.189283" xlink:href="#m81559f5191"/>
     <use x="32.833382" y="175.189283" xlink:href="#m81559f5191"/>
     <use x="28.237441" y="175.189283" xlink:href="#m81559f5191"/>
    </g>
   </g>
   <g id="PathCollection_2">
    <defs>
     <path id="m60472b6a92" d="m0 3c0.79561 0 1.5587-0.3161 2.1213-0.87868 0.56258-0.56258 0.87868-1.3257 0.87868-2.1213s-0.3161-1.5587-0.87868-2.1213c-0.56258-0.56258-1.3257-0.87868-2.1213-0.87868s-1.5587 0.3161-2.1213 0.87868c-0.56258 0.56258-0.87868 1.3257-0.87868 2.1213s0.3161 1.5587 0.87868 2.1213c0.56258 0.56258 1.3257 0.87868 2.1213 0.87868z" stroke="#000" stroke-opacity=".8"/>
    </defs>
    <g clip-path="url(#p176aafc6b7)" fill="#ff0000" fill-opacity=".8" stroke="#000000" stroke-opacity=".8">
     <use x="179.903482" y="50.57923" xlink:href="#m60472b6a92"/>
     <use x="170.711601" y="40.195059" xlink:href="#m60472b6a92"/>
     <use x="189.095363" y="40.195059" xlink:href="#m60472b6a92"/>
     <use x="147.731898" y="60.963401" xlink:href="#m60472b6a92"/>
     <use x="175.307542" y="40.195059" xlink:href="#m60472b6a92"/>
     <use x="170.711601" y="60.963401" xlink:href="#m60472b6a92"/>
     <use x="179.903482" y="29.810888" xlink:href="#m60472b6a92"/>
     <use x="115.560313" y="92.115914" xlink:href="#m60472b6a92"/>
     <use x="175.307542" y="60.963401" xlink:href="#m60472b6a92"/>
     <use x="143.135957" y="50.57923" xlink:href="#m60472b6a92"/>
     <use x="124.752194" y="92.115914" xlink:href="#m60472b6a92"/>
     <use x="156.923779" y="40.195059" xlink:href="#m60472b6a92"/>
     <use x="147.731898" y="92.115914" xlink:href="#m60472b6a92"/>
     <use x="179.903482" y="50.57923" xlink:href="#m60472b6a92"/>
     <use x="129.348135" y="60.963401" xlink:href="#m60472b6a92"/>
     <use x="166.11566" y="50.57923" xlink:href="#m60472b6a92"/>
     <use x="170.711601" y="40.195059" xlink:href="#m60472b6a92"/>
     <use x="152.327838" y="92.115914" xlink:href="#m60472b6a92"/>
     <use x="170.711601" y="40.195059" xlink:href="#m60472b6a92"/>
     <use x="143.135957" y="81.731743" xlink:href="#m60472b6a92"/>
     <use x="184.499423" y="9.042545" xlink:href="#m60472b6a92"/>
     <use x="147.731898" y="60.963401" xlink:href="#m60472b6a92"/>
     <use x="189.095363" y="40.195059" xlink:href="#m60472b6a92"/>
     <use x="179.903482" y="71.347572" xlink:href="#m60472b6a92"/>
     <use x="161.51972" y="60.963401" xlink:href="#m60472b6a92"/>
     <use x="166.11566" y="50.57923" xlink:href="#m60472b6a92"/>
     <use x="184.499423" y="50.57923" xlink:href="#m60472b6a92"/>
     <use x="193.691304" y="19.426717" xlink:href="#m60472b6a92"/>
     <use x="170.711601" y="40.195059" xlink:href="#m60472b6a92"/>
     <use x="124.752194" y="92.115914" xlink:href="#m60472b6a92"/>
     <use x="138.540016" y="81.731743" xlink:href="#m60472b6a92"/>
     <use x="133.944076" y="92.115914" xlink:href="#m60472b6a92"/>
     <use x="143.135957" y="71.347572" xlink:href="#m60472b6a92"/>
     <use x="198.287245" y="29.810888" xlink:href="#m60472b6a92"/>
     <use x="170.711601" y="40.195059" xlink:href="#m60472b6a92"/>
     <use x="170.711601" y="29.810888" xlink:href="#m60472b6a92"/>
     <use x="179.903482" y="40.195059" xlink:href="#m60472b6a92"/>
     <use x="166.11566" y="60.963401" xlink:href="#m60472b6a92"/>
     <use x="152.327838" y="60.963401" xlink:href="#m60472b6a92"/>
     <use x="147.731898" y="60.963401" xlink:href="#m60472b6a92"/>
     <use x="166.11566" y="71.347572" xlink:href="#m60472b6a92"/>
     <use x="175.307542" y="50.57923" xlink:href="#m60472b6a92"/>
     <use x="147.731898" y="71.347572" xlink:href="#m60472b6a92"/>
     <use x="115.560313" y="92.115914" xlink:href="#m60472b6a92"/>
     <use x="156.923779" y="60.963401" xlink:href="#m60472b6a92"/>
     <use x="156.923779" y="71.347572" xlink:href="#m60472b6a92"/>
     <use x="156.923779" y="60.963401" xlink:href="#m60472b6a92"/>
     <use x="161.51972" y="60.963401" xlink:href="#m60472b6a92"/>
     <use x="101.772491" y="81.731743" xlink:href="#m60472b6a92"/>
     <use x="152.327838" y="60.963401" xlink:href="#m60472b6a92"/>
    </g>
   </g>
   <g id="matplotlib.axis_1">
    <g id="text_1">
     <!-- 两种类别的数据 -->
     <defs>
      <path id="SimHei-20004" d="m39.453 30.469q-3.9062-11.328-10.156-19.531-2.3438 3.5156-6.6406 6.6406 10.547 10.938 13.281 30.469h-14.844v-54.688h-7.8125q0.39062 8.9844 0.39062 16.797v31.25q0 5.0781-0.39062 12.891h23.438q0.39062 7.0312 0.78125 15.625h-17.578q-6.6406 0-10.938-0.39062v7.0312q4.2969-0.39062 10.547-0.39062h59.766q5.0781 0 12.109 0.39062v-7.0312q-5.0781 0.39062-11.719 0.39062h-14.062q0-6.6406-0.39062-15.625h21.484q-0.39062-6.6406-0.39062-12.109v-38.672q0-7.0312-3.9062-8.9844t-11.719-2.7344q-1.5625 7.0312-3.9062 9.375 8.2031-0.39062 10.156 0.39062t1.9531 5.8594v40.625h-14.062q-0.39062-3.9062-1.5625-12.5 9.375-8.5938 13.672-13.672-4.2969-3.125-5.8594-5.8594-2.3438 4.2969-9.7656 12.5-4.6875-14.062-9.375-21.875-5.0781 3.5156-8.2031 4.2969 4.6875 4.6875 8.7812 14.25 4.1094 9.5781 4.8906 22.859h-13.672q-0.78125-4.6875-1.9531-10.938 7.0312-5.8594 10.547-10.156-3.125-1.9531-6.25-5.0781-3.9062 6.25-6.6406 8.5938zm5.4688 39.453q0-7.4219-0.78125-15.625h13.672q0.39062 8.5938 0.39062 15.625z"/>
      <path id="SimHei-31181" d="m14.062 42.969q-4.2969 0-7.8125-0.39062v7.0312q5.8594-0.39062 12.5-0.39062h3.125v16.016q-3.9062-1.1719-12.891-3.125-1.5625 3.5156-3.5156 7.4219 8.2031 0.39062 16.203 2.3438 8.0156 1.9531 14.656 5.4688 1.9531-3.125 5.4688-7.8125-3.9062-0.78125-6.4531-1.375-2.5312-0.57812-6.0469-1.3594v-17.578q5.0781 0 12.109 0.39062v-7.0312q-7.0312 0.39062-12.109 0.39062v-39.062q0-5.0781 0.39062-12.891h-8.2031q0.39062 7.8125 0.39062 12.891v24.609q-3.125-7.4219-5.6719-11.922-2.5312-4.4844-6.4375-10.734-3.125 4.2969-5.8594 7.4219 5.4688 5.8594 9.7656 13.281t6.25 16.406zm15.234-8.9844q2.3438 1.5625 6.25 3.5156 1.1719-2.3438 2.9219-5.0781 1.7656-2.7344 4.1094-7.4219-3.5156-1.5625-6.25-3.9062-1.9531 4.2969-3.3281 7.0312-1.3594 2.7344-3.7031 5.8594zm42.969 20.703v-26.562h12.109v26.562zm-27.344 6.25h19.922q0 14.453-0.39062 18.75h8.2031q-0.39062-3.9062-0.39062-18.75h19.922q-0.39062-4.2969-0.39062-11.328v-25.781q0-3.9062 0.39062-9.375h-7.8125v7.4219h-12.109v-15.625q0-9.7656 0.39062-16.016h-8.2031q0.39062 6.25 0.39062 16.016v15.625h-12.109v-8.9844h-7.8125q0.39062 4.6875 0.39062 10.156v25.781q0 7.8125-0.39062 12.109zm7.8125-6.25v-26.562h12.109v26.562z"/>
      <path id="SimHei-31867" d="m20.312 73.438q3.125 2.3438 5.8594 5.0781 5.0781-4.2969 10.938-10.938-3.125-1.9531-6.25-5.0781-3.9062 5.4688-10.547 10.938zm53.906 5.4688q2.7344-1.9531 8.2031-4.2969-3.5156-2.7344-6.0625-5.8594-2.5312-3.125-5.2656-6.6406-3.125 2.7344-6.6406 4.2969 6.25 6.6406 9.7656 12.5zm-65.625-18.359q7.4219-0.39062 14.844-0.39062h23.047v10.938q0 5.4688-0.39062 10.156h8.2031q-0.39062-4.2969-0.39062-10.156v-10.938h24.219q5.8594 0 13.281 0.39062v-7.0312q-7.4219 0.39062-13.281 0.39062h-24.219v-5.8594q0-6.25 0.78125-13.281h-8.5938q0.39062 7.4219 0.39062 13.281v4.6875q-7.0312-9.7656-13.672-15.234t-17.188-10.938q-1.9531 3.5156-6.25 7.8125 10.156 2.7344 17.375 8 7.2344 5.2812 11.141 11.531h-14.453q-7.8125 0-14.844-0.78125zm50-15.234q3.5156 3.125 5.4688 5.4688 11.719-6.6406 25-14.844-3.125-2.7344-6.25-6.6406-10.156 8.2031-24.219 16.016zm-43.359-55.859q-2.3438 4.2969-5.8594 8.5938 12.5 1.1719 22.062 5.6562 9.5781 4.5 12.703 13.875h-19.141q-9.375 0-17.188-0.39062v7.4219q7.8125-0.39062 16.797-0.78125h21.484q0.78125 4.2969 1.1719 9.7656 3.9062-1.1719 9.7656-1.9531-1.5625-3.125-2.3438-7.8125h23.828q7.8125 0 15.625 0.39062v-7.0312q-7.4219 0.39062-15.234 0.39062h-22.266q5.8594-9.375 15.422-13.672 9.5781-4.2969 21.688-5.0781-4.2969-3.9062-5.4688-8.9844-13.672 3.125-22.078 8.2031-8.3906 5.0781-15.031 16.016-4.2969-10.156-13.281-15.625t-22.656-8.9844z"/>
      <path id="SimHei-21035" d="m14.062 75.391h37.109q-0.39062-5.0781-0.39062-15.234t0.39062-14.453h-37.109q0.39062 4.6875 0.39062 15.234t-0.39062 14.453zm7.4219-6.6406v-16.406h22.266v16.406zm-12.891-35.156q5.0781-0.39062 10.156-0.39062h7.8125q0 4.2969-0.39062 8.9844 4.6875-0.78125 8.9844-1.1719-1.1719-3.125-1.5625-7.8125h20.312q-0.39062-3.9062-0.39062-11.328v-15.234q0-8.2031-4.2969-9.375t-10.938-2.7344q-1.1719 5.0781-3.125 8.9844 7.0312 0 9.1719 0.57812 2.1562 0.59375 2.1562 4.5v17.969h-13.281q-1.1719-12.109-5.4688-19.141t-16.016-16.406q-2.7344 4.2969-6.25 7.0312 9.7656 5.0781 14.844 11.906 5.0781 6.8438 5.4688 16.609h-7.0312q-4.6875 0-10.156-0.39062zm54.297 33.594h7.8125q-0.39062-4.6875-0.39062-10.547v-31.641q0-7.0312 0.39062-13.281h-7.8125q0.39062 6.25 0.39062 13.281v31.641q0 5.8594-0.39062 10.547zm17.578 10.938h8.2031q-0.78125-3.9062-0.78125-11.328v-63.281q0-7.8125-3.7188-9.375-3.7031-1.5625-11.125-3.125-1.1719 4.6875-3.125 8.9844 6.6406 0 8.7812 0.57812 2.1562 0.59375 2.1562 5.2812v60.938q0 6.6406-0.39062 11.328z"/>
      <path id="SimHei-30340" d="m23.828 79.688q5.0781-1.1719 10.547-2.7344-1.5625-2.3438-2.7344-6.8438-1.1719-4.4844-1.9531-8h16.797q-0.39062-7.0312-0.39062-16.797v-34.375q0-6.25 0.39062-14.453h-7.4219v8.2031h-20.312v-8.9844h-7.4219q0.39062 9.7656 0.39062 14.453v34.766q0 10.156-0.39062 17.188h10.938q0.39062 3.9062 0.78125 7.6094 0.39062 3.7188 0.78125 9.9688zm-5.0781-24.609v-17.188h20.312v17.188zm0-24.609v-18.359h20.312v18.359zm72.656 30.859q-0.78125-7.4219-1.1719-14.453l-2.7344-44.141q-1.1719-7.0312-7.0312-8.9844t-12.5-2.3438q0 4.2969-2.7344 8.9844 6.6406-0.39062 10.547 0.1875 3.9062 0.59375 4.6875 4.8906l3.125 48.828h-20.703q-3.125-6.6406-7.4219-14.844-3.125 2.3438-6.6406 3.9062 2.3438 3.5156 5.2656 9.7656 2.9375 6.25 5.0781 13.469 2.1562 7.2344 2.9375 11.922 5.0781-2.3438 9.7656-3.5156-1.9531-3.125-3.5156-6.4531-1.5625-3.3125-2.7344-7.2188zm-34.375-25.391q2.7344 1.5625 6.6406 3.9062 1.9531-3.5156 3.9062-7.8125t4.2969-10.547q-3.125-1.1719-7.0312-3.5156-1.1719 4.2969-3.3281 9.375-2.1406 5.0781-4.4844 8.5938z"/>
      <path id="SimHei-25968" d="m10.938 75.781q3.9062 1.1719 6.25 2.7344 3.125-5.0781 5.8594-10.156-3.5156-1.5625-6.25-3.125-2.3438 5.8594-5.8594 10.547zm33.984 2.7344q4.2969-1.9531 8.2031-3.5156-2.3438-1.5625-3.9062-4.2969t-3.5156-6.25q-3.125 1.5625-6.25 2.3438 3.125 5.0781 5.4688 11.719zm-6.6406-28.906q3.5156 1.5625 5.8594 3.9062 4.6875-6.6406 7.8125-12.109-3.5156-1.5625-6.6406-3.9062-3.125 7.4219-7.0312 12.109zm-30.078 12.109q6.25-0.39062 19.922-0.39062 0 11.328-0.39062 19.531h7.8125q-0.39062-8.2031-0.39062-19.531 12.891 0 18.75 0.39062v-7.0312q-5.8594 0.39062-18.75 0.39062 0-8.9844 0.39062-15.625h-7.8125q0.39062 5.8594 0.39062 12.5-1.9531-3.9062-6.4531-8.4062-4.4844-4.4844-9.9531-7.6094-1.5625 3.5156-5.0781 5.8594 3.5156 1.1719 8.7812 5.0781 5.2812 3.9062 7.625 8.2031-8.2031 0-14.844-0.39062zm18.75-37.5q-1.9531-3.9062-4.2969-7.8125 4.6875-1.1719 12.5-3.125 2.7344 3.5156 5.0781 10.938zm-2.7344 14.062q4.2969-1.5625 8.5938-2.7344-1.5625-1.5625-3.5156-5.0781h15.234 4.2969q-2.3438-10.156-6.6406-19.141 6.6406-1.9531 10.547-3.125-3.125-4.2969-4.6875-7.8125-3.5156 2.3438-10.547 5.0781-9.375-9.375-28.125-15.625-1.5625 3.9062-4.6875 6.25 16.797 3.9062 26.562 12.109-10.938 2.7344-17.969 4.6875 2.3438 3.125 6.25 11.328-6.25 0-14.844-0.39062v7.0312q7.4219-0.39062 17.188-0.39062 1.1719 3.125 2.3438 7.8125zm39.453 42.188q4.6875-1.9531 9.7656-2.7344-1.9531-2.3438-2.9375-5.4688-0.96875-3.125-2.5312-8.9844h17.578q3.5156 0 8.9844 0.39062v-7.0312q-4.2969 0.39062-7.0312 0.39062-0.39062-8.2031-1.9531-21.688-1.5625-13.469-7.4219-23.625 3.9062-5.4688 8.9844-8.9844t8.9844-5.0781q-5.4688-3.5156-7.0312-7.0312-6.6406 4.6875-9.7656 8.0156-3.125 3.3125-5.8594 7.2188-4.6875-4.6875-8.7969-7.8125-4.0938-3.125-13.078-8.2031-1.9531 3.5156-6.25 6.25 7.4219 2.7344 13.672 7.0312t10.547 8.9844q-4.2969 8.5938-6.6406 16.984-2.3438 8.4062-2.7344 11.922-0.78125-2.7344-1.9531-6.25-3.5156 1.5625-7.8125 3.125 4.6875 8.5938 8.5938 20.703t4.6875 21.875zm2.7344-23.438q-1.5625-3.9062-2.3438-6.4531-0.78125-2.5312 2.9219-13.859 3.7188-11.328 7.2344-17.578 3.5156 9.375 4.875 19.531 1.375 10.156 1.375 18.359z"/>
      <path id="SimHei-25454" d="m5.8594 59.375q5.4688-0.39062 12.891-0.39062v8.9844q0 5.4688-0.39062 10.156h7.4219q-0.39062-4.2969-0.39062-10.156v-8.9844q3.9062 0 10.156 0.39062v-6.6406q-6.25 0.39062-10.156 0.39062v-15.625q3.5156 1.1719 8.9844 3.125 0-3.125 0.39062-6.25-5.0781-1.5625-9.375-3.125v-26.953q0-7.4219-3.7188-8.9844-3.7031-1.5625-10.344-2.7344-0.78125 4.2969-3.125 8.5938 6.6406 0 8.5938 0.57812 1.9531 0.59375 1.9531 5.2812v21.875q-6.25-1.9531-10.938-4.6875-1.1719 3.125-3.125 7.8125 6.25 1.1719 14.062 3.5156v17.578q-7.4219 0-12.891-0.39062zm50.781-41.406v-14.062h23.438v14.062zm-17.188 58.594h49.219q-0.39062-3.5156-0.39062-8.9844v-5.0781q0-6.25 0.39062-9.375h-42.188v-11.328h18.359q0 3.125-0.39062 10.156h7.4219q-0.39062-6.6406-0.39062-10.156h10.547q7.4219 0 12.109 0.39062v-6.6406q-4.6875 0.39062-11.719 0.39062h-10.938v-12.109h15.625q-0.39062-7.8125-0.39062-10.156v-8.9844q0-6.6406 0.39062-11.719h-7.0312v5.0781h-23.438v-6.25h-6.6406q0.39062 4.6875 0.39062 11.328v10.938q0 3.9062-0.39062 9.7656h14.844v12.109h-18.359q-0.78125-8.9844-1.7656-14.844-0.96875-5.8594-2.3438-10.359-1.3594-4.4844-3.125-8.2031-1.75-3.7031-3.7031-8.3906-3.5156 1.9531-8.5938 3.125 5.0781 6.25 7.8125 13.281t3.7031 15.031q0.98438 8.0156 1.1719 17 0.20312 8.9844 0.20312 15.031 0 6.0625-0.39062 18.953zm7.0312-5.8594v-11.719h35.156v11.719z"/>
     </defs>
     <g transform="translate(55.07 209.45) scale(.14 -.14)">
      <use xlink:href="#SimHei-20004"/>
      <use x="100" xlink:href="#SimHei-31181"/>
      <use x="200" xlink:href="#SimHei-31867"/>
      <use x="300" xlink:href="#SimHei-21035"/>
      <use x="400" xlink:href="#SimHei-30340"/>
      <use x="500" xlink:href="#SimHei-25968"/>
      <use x="600" xlink:href="#SimHei-25454"/>
     </g>
    </g>
   </g>
   <g id="patch_3">
    <path d="m0.432 194.4v-194.18" fill="none" stroke="#000" stroke-linecap="square" stroke-width=".8"/>
   </g>
   <g id="patch_4">
    <path d="m207.71 194.4v-194.18" fill="none" stroke="#000" stroke-linecap="square" stroke-width=".8"/>
   </g>
   <g id="patch_5">
    <path d="m0.432 194.4h207.28" fill="none" stroke="#000" stroke-linecap="square" stroke-width=".8"/>
   </g>
   <g id="patch_6">
    <path d="m0.432 0.216h207.28" fill="none" stroke="#000" stroke-linecap="square" stroke-width=".8"/>
   </g>
  </g>
  <g id="axes_2">
   <g id="patch_7">
    <path d="m224.29 194.4h207.28v-194.18h-207.28z" fill="#fff"/>
   </g>
   <g id="PathCollection_3">
    <path d="m224.75 194.4h0.46164 0.46164 0.46164 0.46164 0.46164 0.46164 0.46164 0.46164 0.46164 0.46164 0.46164 0.46164 0.46164 0.46164 0.46164 0.46164 0.46164 0.46164 0.46164 0.46164 0.46164 0.46164 0.46164 0.46164 0.46164 0.46164 0.46164 0.46164 0.46164 0.46164 0.46164 0.46164 0.46164 0.46164 0.46164 0.46164 0.46164 0.46164 0.46164 0.46164 0.46164 0.46164 0.46164 0.46164 0.46164 0.46164 0.46164 0.46164 0.46164 0.46164 0.46164 0.46164 0.46164 0.46164 0.46164 0.46164 0.46164 0.46164 0.46164 0.46164 0.46164 0.46164 0.46164 0.46164 0.46164 0.46164 0.46164 0.46164 0.46164 0.46164 0.46164 0.46164 0.46164 0.46164 0.46164 0.46164 0.46164 0.46164 0.46164 0.46164 0.46164 0.46164 0.46164 0.46164 0.46164 0.46164 0.46164 0.46164 0.46164 0.46164 0.46164 0.46164 0.46164 0.46164 0.46164 0.46164 0.46164 0.46164 0.46164 0.46164 0.46164 0.46164 0.46164 0.46164 0.46164 0.46164 0.46164 0.46164 0.46164 0.46164 0.46164 0.46164 0.46164 0.46164 0.46164 0.46164 0.46164 0.46164 0.46164 0.46164 0.46164 0.46164 0.46164 0.46164 0.46164 0.46164 0.46164 0.46164 0.46164 0.46164 0.46164 0.46164 0.46164 0.46164 0.46164 0.46164 0.46164 0.46164 0.46164 0.46164 0.46164 0.46164 0.46164 0.46164 0.46164 0.46164 0.46164 0.46164 0.46164 0.46164 0.46164 0.46164 0.46164 0.46164 0.46164 0.46164 0.46164 0.46164 0.46164 0.46164 0.46164 0.46164 0.46164 0.46164 0.46164 0.46164 0.46164 0.46164 0.46164 0.46164 0.46164 0.46164 0.46164 0.46164 0.46164 0.46164 0.46164 0.46164 0.46164 0.46164 0.46164 0.46164 0.46164 0.46164 0.46164 0.46164 0.46164 0.46164 0.46164 0.46164 0.46164 0.46164 0.46164 0.46164 0.46164 0.46164 0.46164 0.46164 0.46164 0.46164 0.46164 0.46164 0.46164 0.46164 0.46164 0.46164 0.46164 0.46164 0.46164 0.46164 0.46164 0.46164 0.46164 0.46164 0.46164 0.46164 0.46164 0.46164 0.46164 0.46164 0.46164 0.46164 0.46164 0.46164 0.46164 0.46164 0.46164 0.46164 0.46164 0.46164 0.46164 0.46164 0.46164 0.46164 0.46164 0.46164 0.46164 0.46164 0.46164 0.46164 0.46164 0.46164 0.46164 0.46164 0.46164 0.46164 0.46164 0.46164 0.46164 0.46164 0.46164 0.46164 0.46164 0.46164 0.46164 0.46164 0.46164 0.46164 0.46164 0.46164 0.46164 0.46164 0.46164 0.46164 0.46164 0.46164 0.46164 0.46164 0.46164 0.46164 0.46164 0.069246l-0.069246-0.13937h-0.46164l-0.3924-0.78974-0.069246-0.13937h-0.46164l-0.3924-0.78974-0.069246-0.13937h-0.46164l-0.3924-0.78974-0.069246-0.13937h-0.46164l-0.3924-0.78974-0.069246-0.13937h-0.46164l-0.46164-0.92911h-0.46164l-0.3924-0.78974-0.069246-0.13937h-0.46164l-0.85404-1.7189-0.069246-0.13937h-0.46164l-0.3924-0.78974-0.069246-0.13937h-0.46164l-0.3924-0.78974-0.069246-0.13937h-0.46164l-0.46164-0.92911h-0.46164l-0.46164-0.92911h-0.46164l-0.46164-0.92911h-0.46164l-0.46164-0.92911h-0.46164l-0.46164-0.92911h-0.46164l-0.92328-1.8582h-0.46164l-0.46164-0.92911h-0.46164l-0.46164-0.92911h-0.46164l-0.46164-0.92911h-0.46164l-0.3924-0.78974-0.069246-0.13937h-0.46164l-0.46164-0.92911h-0.46164l-0.3924-0.78974-0.069246-0.13937h-0.46164l-0.46164-0.92911h-0.46164l-0.3924-0.78974-0.46164-0.92911-0.069246-0.13937h-0.46164l-0.3924-0.78974-0.069246-0.13937h-0.46164l-0.3924-0.78974-0.069246-0.13937h-0.46164l-0.3924-0.78974-0.069246-0.13937h-0.46164l-0.3924-0.78974-0.069246-0.13937h-0.46164l-0.3924-0.78974-0.069246-0.13937h-0.46164l-0.46164-0.92911h-0.46164l-0.46164-0.92911h-0.46164l-0.92328-1.8582h-0.46164l-0.46164-0.92911h-0.46164l-0.46164-0.92911h-0.46164l-0.46164-0.92911h-0.46164l-0.46164-0.92911h-0.46164l-0.46164-0.92911h-0.46164l-0.46164-0.92911h-0.46164l-0.3924-0.78974-0.069246-0.13937h-0.46164l-0.3924-0.78974-0.46164-0.92911-0.069246-0.13937h-0.46164l-0.46164-0.92911h-0.46164l-0.3924-0.78974-0.069246-0.13937h-0.46164l-0.46164-0.92911h-0.46164l-0.3924-0.78974-0.069246-0.13937h-0.46164l-0.46164-0.92911h-0.46164l-0.3924-0.78974-0.069246-0.13937h-0.46164l-0.46164-0.92911h-0.46164l-0.3924-0.78974-0.53089-1.0685h-0.46164l-0.46164-0.92911h-0.46164l-0.46164-0.92911h-0.46164l-0.46164-0.92911h-0.46164l-0.46164-0.92911h-0.46164l-0.46164-0.92911h-0.46164l-0.46164-0.92911h-0.46164l-0.46164-0.92911h-0.46164l-0.92328-1.8582h-0.46164l-0.3924-0.78974-0.069246-0.13937h-0.46164l-0.3924-0.78974-0.069246-0.13937h-0.46164l-0.3924-0.78974-0.069246-0.13937h-0.46164l-0.3924-0.78974-0.069246-0.13937h-0.46164l-0.3924-0.78974-0.069246-0.13937h-0.46164l-0.3924-0.78974-0.069246-0.13937h-0.46164l-0.3924-0.78974-0.069246-0.13937h-0.46164l-0.3924-0.78974-0.46164-0.92911-0.069246-0.13937h-0.46164l-0.46164-0.92911h-0.46164l-0.3924-0.78974-0.069246-0.13937h-0.46164l-0.46164-0.92911h-0.46164l-0.46164-0.92911h-0.46164l-0.46164-0.92911h-0.46164l-0.46164-0.92911h-0.46164l-0.46164-0.92911h-0.46164l-0.92328-1.8582h-0.46164l-0.46164-0.92911h-0.46164l-0.46164-0.92911h-0.46164l-0.46164-0.92911h-0.46164l-0.3924-0.78974-0.069246-0.13937h-0.46164l-0.3924-0.78974-0.069246-0.13937h-0.46164l-0.3924-0.78974-0.069246-0.13937h-0.46164l-0.3924-0.78974-0.069246-0.13937h-0.46164l-0.3924-0.78974-0.53089-1.0685h-0.46164l-0.3924-0.78974-0.069246-0.13937h-0.46164l-0.46164-0.92911h-0.46164l-0.3924-0.78974-0.069246-0.13937h-0.46164l-0.46164-0.92911h-0.46164l-0.3924-0.78974-0.069246-0.13937h-0.46164l-0.46164-0.92911h-0.46164l-0.46164-0.92911h-0.46164l-0.92328-1.8582h-0.46164l-0.46164-0.92911h-0.46164l-0.46164-0.92911h-0.46164l-0.46164-0.92911h-0.46164l-0.46164-0.92911h-0.46164l-0.46164-0.92911h-0.46164l-0.46164-0.92911h-0.46164l-0.85404-1.7189-0.069246-0.13937h-0.46164l-0.3924-0.78974-0.069246-0.13937h-0.46164l-0.3924-0.78974-0.069246-0.13937h-0.46164l-0.3924-0.78974-0.069246-0.13937h-0.46164l-0.3924-0.78974-0.069246-0.13937h-0.46164l-0.3924-0.78974-0.069246-0.13937h-0.46164l-0.3924-0.78974-0.069246-0.13937h-0.46164l-0.3924-0.78974-0.069246-0.13937h-0.46164l-0.3924-0.78974-0.53089-1.0685h-0.46164l-0.46164-0.92911h-0.46164l-0.46164-0.92911h-0.46164l-0.46164-0.92911h-0.46164l-0.46164-0.92911h-0.46164l-0.46164-0.92911h-0.46164l-0.46164-0.92911h-0.46164l-0.46164-0.92911h-0.46164l-0.92328-1.8582h-0.46164l-0.46164-0.92911h-0.46164l-0.3924-0.78974-0.069246-0.13937h-0.46164l-0.3924-0.78974-0.069246-0.13937h-0.46164l-0.3924-0.78974-0.069246-0.13937h-0.46164l-0.3924-0.78974-0.069246-0.13937h-0.46164l-0.3924-0.78974-0.069246-0.13937h-0.46164l-0.3924-0.78974-0.069246-0.13937h-0.46164l-0.3924-0.78974-0.46164-0.92911-0.069246-0.13937h-0.46164l-0.3924-0.78974-0.069246-0.13937h-0.46164l-0.3924-0.78974-0.069246-0.13937h-0.46164l-0.46164-0.92911h-0.46164l-0.46164-0.92911h-0.46164l-0.46164-0.92911h-0.46164l-0.46164-0.92911h-0.46164l-0.46164-0.92911h-0.46164l-0.92328-1.8582h-0.46164l-0.46164-0.92911h-0.46164l-0.46164-0.92911v0.13937 0.92911 0.92911 0.92911 0.92911 0.92911 0.92911 0.92911 0.92911 0.92911 0.92911 0.92911 0.92911 0.92911 0.92911 0.92911 0.92911 0.92911 0.92911 0.92911 0.92911 0.92911 0.92911 0.92911 0.92911 0.92911 0.92911 0.92911 0.92911 0.92911 0.92911 0.92911 0.92911 0.92911 0.92911 0.92911 0.92911 0.92911 0.92911 0.92911 0.92911 0.92911 0.92911 0.92911 0.92911 0.92911 0.92911 0.92911 0.92911 0.92911 0.92911 0.92911 0.92911 0.92911 0.92911 0.92911 0.92911 0.92911 0.92911 0.92911 0.92911 0.92911 0.92911 0.92911 0.92911 0.92911 0.92911 0.92911 0.92911 0.92911 0.92911 0.92911 0.92911 0.92911 0.92911 0.92911 0.92911 0.92911 0.92911 0.92911 0.92911 0.92911 0.92911 0.92911 0.92911 0.92911 0.92911 0.92911 0.92911 0.92911 0.92911 0.92911 0.92911 0.92911 0.92911 0.92911 0.92911 0.92911 0.92911 0.92911 0.92911 0.92911 0.92911 0.92911 0.92911 0.92911 0.92911 0.92911 0.92911 0.92911 0.92911 0.92911 0.92911 0.92911 0.92911 0.92911 0.92911 0.92911 0.92911 0.92911 0.92911 0.92911 0.92911 0.92911 0.92911 0.92911 0.92911 0.92911 0.92911 0.92911 0.92911 0.92911 0.92911 0.92911 0.92911 0.92911 0.92911 0.92911 0.92911 0.92911 0.92911 0.92911 0.92911 0.92911 0.92911z" clip-path="url(#p74dbf3c2f9)" fill="#00f" fill-opacity=".4"/>
   </g>
   <g id="PathCollection_4">
    <path d="m349.4 194.26h0.46164l0.069246 0.13937h0.069246l-0.13849-0.27873h-0.46164l-0.32315-0.65038-0.13849-0.27873h-0.46164l-0.32315-0.65038-0.13849-0.27873h-0.46164l-0.32315-0.65038-0.13849-0.27873h-0.46164l-0.32315-0.65038-0.13849-0.27873h-0.46164l-0.46164-0.92911h-0.46164l-0.32315-0.65038-0.13849-0.27873h-0.46164l-0.46164-0.92911-0.46164-0.92911h-0.46164l-0.32315-0.65038-0.13849-0.27873h-0.46164l-0.46164-0.92911h-0.46164l-0.46164-0.92911h-0.46164l-0.46164-0.92911h-0.46164l-0.32315-0.65038-0.13849-0.27873h-0.46164l-0.46164-0.92911h-0.46164l-0.32315-0.65038-0.13849-0.27873h-0.46164l-0.78479-1.5795-0.13849-0.27873h-0.46164l-0.46164-0.92911h-0.46164l-0.32315-0.65038-0.13849-0.27873h-0.46164l-0.46164-0.92911h-0.46164l-0.32315-0.65038-0.13849-0.27873h-0.46164l-0.46164-0.92911h-0.46164l-0.32315-0.65038-0.13849-0.27873h-0.46164l-0.46164-0.92911h-0.46164l-0.32315-0.65038-0.60013-1.2078h-0.46164l-0.32315-0.65038-0.13849-0.27873h-0.46164l-0.32315-0.65038-0.13849-0.27873h-0.46164l-0.32315-0.65038-0.13849-0.27873h-0.46164l-0.32315-0.65038-0.13849-0.27873h-0.46164l-0.32315-0.65038-0.13849-0.27873h-0.46164l-0.46164-0.92911h-0.46164l-0.32315-0.65038-0.13849-0.27873h-0.46164l-0.32315-0.65038-0.60013-1.2078h-0.46164l-0.32315-0.65038-0.13849-0.27873h-0.46164l-0.46164-0.92911h-0.46164l-0.32315-0.65038-0.13849-0.27873h-0.46164l-0.46164-0.92911h-0.46164l-0.32315-0.65038-0.13849-0.27873h-0.46164l-0.46164-0.92911h-0.46164l-0.32315-0.65038-0.13849-0.27873h-0.46164l-0.78479-1.5795-0.13849-0.27873h-0.46164l-0.46164-0.92911h-0.46164l-0.32315-0.65038-0.13849-0.27873h-0.46164l-0.46164-0.92911h-0.46164l-0.32315-0.65038-0.13849-0.27873h-0.46164l-0.46164-0.92911h-0.46164l-0.32315-0.65038-0.13849-0.27873h-0.46164l-0.46164-0.92911h-0.46164l-0.32315-0.65038-0.60013-1.2078h-0.46164l-0.32315-0.65038-0.13849-0.27873h-0.46164l-0.32315-0.65038-0.13849-0.27873h-0.46164l-0.32315-0.65038-0.13849-0.27873h-0.46164l-0.32315-0.65038-0.13849-0.27873h-0.46164l-0.32315-0.65038-0.13849-0.27873h-0.46164l-0.32315-0.65038-0.13849-0.27873h-0.46164l-0.32315-0.65038-0.13849-0.27873h-0.46164l-0.32315-0.65038-0.60013-1.2078h-0.46164l-0.32315-0.65038-0.13849-0.27873h-0.46164l-0.46164-0.92911h-0.46164l-0.32315-0.65038-0.13849-0.27873h-0.46164l-0.46164-0.92911h-0.46164l-0.32315-0.65038-0.13849-0.27873h-0.46164l-0.46164-0.92911h-0.46164l-0.32315-0.65038-0.13849-0.27873h-0.46164l-0.78479-1.5795-0.13849-0.27873h-0.46164l-0.46164-0.92911h-0.46164l-0.32315-0.65038-0.13849-0.27873h-0.46164l-0.46164-0.92911h-0.46164l-0.32315-0.65038-0.13849-0.27873h-0.46164l-0.46164-0.92911h-0.46164l-0.32315-0.65038-0.13849-0.27873h-0.46164l-0.46164-0.92911h-0.46164l-0.32315-0.65038-0.60013-1.2078h-0.46164l-0.46164-0.92911h-0.46164l-0.32315-0.65038-0.13849-0.27873h-0.46164l-0.46164-0.92911h-0.46164l-0.32315-0.65038-0.13849-0.27873h-0.46164l-0.46164-0.92911h-0.46164l-0.32315-0.65038-0.13849-0.27873h-0.46164l-0.32315-0.65038-0.13849-0.27873h-0.46164l-0.32315-0.65038-0.60013-1.2078h-0.46164l-0.32315-0.65038-0.13849-0.27873h-0.46164l-0.46164-0.92911h-0.46164l-0.32315-0.65038-0.13849-0.27873h-0.46164l-0.46164-0.92911h-0.46164l-0.32315-0.65038-0.13849-0.27873h-0.46164l-0.46164-0.92911h-0.46164l-0.32315-0.65038-0.13849-0.27873h-0.46164l-0.78479-1.5795-0.13849-0.27873h-0.46164l-0.32315-0.65038-0.13849-0.27873h-0.46164l-0.32315-0.65038-0.13849-0.27873h-0.46164l-0.32315-0.65038-0.13849-0.27873h-0.46164l-0.32315-0.65038-0.13849-0.27873h-0.46164l-0.46164-0.92911h-0.46164l-0.32315-0.65038-0.13849-0.27873h-0.46164l-0.46164-0.92911-0.46164-0.92911h-0.46164l-0.32315-0.65038-0.13849-0.27873h-0.46164l-0.46164-0.92911h-0.46164l-0.32315-0.65038-0.13849-0.27873h-0.46164l-0.46164-0.92911h-0.46164l-0.32315-0.65038-0.13849-0.27873h-0.46164l-0.46164-0.92911h-0.46164l-0.32315-0.65038-0.13849-0.27873h-0.46164l-0.92328-1.8582h-0.46164l-0.46164-0.92911h-0.46164l-0.32315-0.65038-0.13849-0.27873h-0.46164l-0.46164-0.92911h-0.46164l-0.32315-0.65038-0.13849-0.27873h-0.46164l-0.46164-0.92911h-0.46164l-0.32315-0.65038-0.13849-0.27873h-0.46164l-0.46164-0.92911h-0.46164l-0.32315-0.65038-0.60013-1.2078h-0.46164l-0.32315-0.65038-0.13849-0.27873h-0.46164l-0.32315-0.65038-0.13849-0.27873h-0.46164l-0.32315-0.65038-0.13849-0.27873h-0.46164l-0.32315-0.65038-0.13849-0.27873h-0.46164l-0.32315-0.65038-0.13849-0.27873h-0.46164l-0.32315-0.65038-0.13849-0.27873h-0.46164l-0.32315-0.65038-0.13849-0.27873h-0.46164l-0.32315-0.65038-0.60013-1.2078h-0.46164l-0.32315-0.65038-0.13849-0.27873h-0.46164l-0.46164-0.92911h-0.46164l-0.46164-0.92911h-0.46164l-0.46164-0.92911h-0.46164l-0.32315-0.65038-0.13849-0.27873h-0.46164l-0.46164-0.92911h-0.46164l-0.32315-0.65038-0.13849-0.27873h-0.46164l-0.78479-1.5795-0.13849-0.27873h-0.46164l-0.46164-0.92911h-0.46164l-0.32315-0.65038-0.13849-0.27873v0.13937l0.46164 0.92911h0.46164l0.069247 0.13937 0.3924 0.78974h0.46164l0.92328 1.8582h0.46164l0.46164 0.92911h0.46164l0.46164 0.92911h0.46164l0.46164 0.92911h0.46164l0.46164 0.92911h0.46164l0.46164 0.92911h0.46164l0.46164 0.92911h0.46164l0.46164 0.92911h0.46164l0.46164 0.92911 0.46164 0.92911h0.46164l0.46164 0.92911h0.46164l0.46164 0.92911h0.46164l0.46164 0.92911h0.46164l0.46164 0.92911h0.46164l0.46164 0.92911h0.46164l0.46164 0.92911h0.46164l0.46164 0.92911h0.46164l0.92328 1.8582h0.46164l0.069247 0.13937 0.3924 0.78974h0.46164l0.46164 0.92911h0.46164l0.069247 0.13937 0.3924 0.78974h0.46164l0.46164 0.92911h0.46164l0.069247 0.13937 0.3924 0.78974h0.46164l0.46164 0.92911h0.46164l0.069247 0.13937 0.3924 0.78974h0.46164l0.46164 0.92911 0.46164 0.92911h0.46164l0.46164 0.92911h0.46164l0.46164 0.92911h0.46164l0.46164 0.92911h0.46164l0.46164 0.92911h0.46164l0.46164 0.92911h0.46164l0.46164 0.92911h0.46164l0.46164 0.92911h0.46164l0.92328 1.8582h0.46164l0.46164 0.92911h0.46164l0.069247 0.13937 0.3924 0.78974h0.46164l0.46164 0.92911h0.46164l0.46164 0.92911h0.46164l0.46164 0.92911h0.46164l0.46164 0.92911h0.46164l0.92328 1.8582h0.46164l0.46164 0.92911h0.46164l0.46164 0.92911h0.46164l0.46164 0.92911h0.46164l0.069247 0.13937 0.3924 0.78974h0.46164l0.46164 0.92911h0.46164l0.069247 0.13937 0.3924 0.78974h0.46164l0.46164 0.92911h0.46164l0.069247 0.13937 0.3924 0.78974 0.46164 0.92911h0.46164l0.46164 0.92911h0.46164l0.46164 0.92911h0.46164l0.46164 0.92911h0.46164l0.46164 0.92911h0.46164l0.46164 0.92911h0.46164l0.46164 0.92911h0.46164l0.46164 0.92911h0.46164l0.92328 1.8582h0.46164l0.069247 0.13937 0.3924 0.78974h0.46164l0.46164 0.92911h0.46164l0.069247 0.13937 0.3924 0.78974h0.46164l0.46164 0.92911h0.46164l0.069247 0.13937 0.3924 0.78974h0.46164l0.46164 0.92911h0.46164l0.069247 0.13937 0.3924 0.78974h0.46164l0.46164 0.92911 0.46164 0.92911h0.46164l0.46164 0.92911h0.46164l0.46164 0.92911h0.46164l0.46164 0.92911h0.46164l0.46164 0.92911h0.46164l0.46164 0.92911h0.46164l0.46164 0.92911h0.46164l0.46164 0.92911h0.46164l0.92328 1.8582h0.46164l0.46164 0.92911h0.46164l0.46164 0.92911h0.46164l0.46164 0.92911h0.46164l0.46164 0.92911h0.46164l0.46164 0.92911h0.46164l0.46164 0.92911h0.46164l0.46164 0.92911h0.46164l0.46164 0.92911 0.46164 0.92911h0.46164l0.069247 0.13937 0.3924 0.78974h0.46164l0.46164 0.92911h0.46164l0.069247 0.13937 0.3924 0.78974h0.46164l0.46164 0.92911h0.46164l0.069247 0.13937 0.3924 0.78974h0.46164l0.46164 0.92911h0.46164l0.069247 0.13937 0.3924 0.78974h0.46164l0.46164 0.92911 0.46164 0.92911h0.46164l0.46164 0.92911h0.46164l0.46164 0.92911h0.46164l0.46164 0.92911h0.46164l0.46164 0.92911h0.46164l0.46164 0.92911h0.46164l0.46164 0.92911h0.46164l0.46164 0.92911h0.46164l0.92328 1.8582h0.46164l0.46164 0.92911h0.46164l0.46164 0.92911h0.46164l0.46164 0.92911h0.46164l0.46164 0.92911h0.46164l0.46164 0.92911h0.46164l0.46164 0.92911h0.46164l0.46164 0.92911h0.46164l0.46164 0.92911 0.46164 0.92911h0.46164l0.069247 0.13937 0.3924 0.78974h0.46164l0.46164 0.92911h0.46164l0.069247 0.13937 0.3924 0.78974h0.46164l0.46164 0.92911h0.46164l0.069247 0.13937 0.3924 0.78974h0.46164l0.46164 0.92911h0.46164l0.069247 0.13937 0.3924 0.78974h0.46164l0.92328 1.8582h0.46164l0.46164 0.92911h0.46164l0.46164 0.92911h0.46164l0.46164 0.92911h0.46164l0.46164 0.92911h0.46164l0.46164 0.92911h0.46164l0.46164 0.92911h0.46164l0.46164 0.92911h0.46164l0.92328 1.8582h0.46164l0.46164 0.92911h0.46164l0.069247 0.13937 0.3924 0.78974h0.46164l0.46164 0.92911h0.46164l0.46164 0.92911h0.46164l0.46164 0.92911h0.46164l0.069246 0.13937z" clip-path="url(#p74dbf3c2f9)" fill="#00f" fill-opacity=".4"/>
   </g>
   <g id="PathCollection_5">
    <path d="m349.4 194.12h0.46164l0.13849 0.27873h0.069247l-0.20774-0.4181h-0.46164l-0.2539-0.51101-0.20774-0.4181h-0.46164l-0.46164-0.92911h-0.46164l-0.2539-0.51101-0.20774-0.4181h-0.46164l-0.46164-0.92911h-0.46164l-0.46164-0.92911h-0.46164l-0.46164-0.92911h-0.46164l-0.46164-0.92911-0.46164-0.92911h-0.46164l-0.2539-0.51101-0.20774-0.4181h-0.46164l-0.46164-0.92911h-0.46164l-0.46164-0.92911h-0.46164l-0.46164-0.92911h-0.46164l-0.46164-0.92911h-0.46164l-0.46164-0.92911h-0.46164l-0.46164-0.92911h-0.46164l-0.92328-1.8582h-0.46164l-0.46164-0.92911h-0.46164l-0.46164-0.92911h-0.46164l-0.46164-0.92911h-0.46164l-0.2539-0.51101-0.20774-0.4181h-0.46164l-0.46164-0.92911h-0.46164l-0.2539-0.51101-0.20774-0.4181h-0.46164l-0.46164-0.92911h-0.46164l-0.2539-0.51101-0.46164-0.92911-0.20774-0.4181h-0.46164l-0.46164-0.92911h-0.46164l-0.2539-0.51101-0.20774-0.4181h-0.46164l-0.46164-0.92911h-0.46164l-0.2539-0.51101-0.20774-0.4181h-0.46164l-0.46164-0.92911h-0.46164l-0.46164-0.92911h-0.46164l-0.46164-0.92911h-0.46164l-0.92328-1.8582h-0.46164l-0.46164-0.92911h-0.46164l-0.46164-0.92911h-0.46164l-0.46164-0.92911h-0.46164l-0.46164-0.92911h-0.46164l-0.46164-0.92911h-0.46164l-0.46164-0.92911h-0.46164l-0.2539-0.51101-0.20774-0.4181h-0.46164l-0.92328-1.8582h-0.46164l-0.46164-0.92911h-0.46164l-0.2539-0.51101-0.20774-0.4181h-0.46164l-0.46164-0.92911h-0.46164l-0.2539-0.51101-0.20774-0.4181h-0.46164l-0.46164-0.92911h-0.46164l-0.2539-0.51101-0.20774-0.4181h-0.46164l-0.46164-0.92911h-0.46164l-0.2539-0.51101-0.66938-1.3472h-0.46164l-0.46164-0.92911h-0.46164l-0.46164-0.92911h-0.46164l-0.46164-0.92911h-0.46164l-0.46164-0.92911h-0.46164l-0.46164-0.92911h-0.46164l-0.46164-0.92911h-0.46164l-0.46164-0.92911h-0.46164l-0.92328-1.8582h-0.46164l-0.2539-0.51101-0.20774-0.4181h-0.46164l-0.46164-0.92911h-0.46164l-0.2539-0.51101-0.20774-0.4181h-0.46164l-0.46164-0.92911h-0.46164l-0.2539-0.51101-0.20774-0.4181h-0.46164l-0.46164-0.92911h-0.46164l-0.2539-0.51101-0.20774-0.4181h-0.46164l-0.92328-1.8582h-0.46164l-0.46164-0.92911h-0.46164l-0.46164-0.92911h-0.46164l-0.46164-0.92911h-0.46164l-0.46164-0.92911h-0.46164l-0.46164-0.92911h-0.46164l-0.46164-0.92911h-0.46164l-0.46164-0.92911h-0.46164l-0.92328-1.8582h-0.46164l-0.46164-0.92911h-0.46164l-0.46164-0.92911h-0.46164l-0.46164-0.92911h-0.46164l-0.2539-0.51101-0.20774-0.4181h-0.46164l-0.46164-0.92911h-0.46164l-0.2539-0.51101-0.20774-0.4181h-0.46164l-0.46164-0.92911h-0.46164l-0.2539-0.51101-0.66938-1.3472h-0.46164l-0.2539-0.51101-0.20774-0.4181h-0.46164l-0.46164-0.92911h-0.46164l-0.2539-0.51101-0.20774-0.4181h-0.46164l-0.46164-0.92911h-0.46164l-0.2539-0.51101-0.20774-0.4181h-0.46164l-0.46164-0.92911h-0.46164l-0.46164-0.92911h-0.46164l-0.46164-0.92911-0.46164-0.92911h-0.46164l-0.46164-0.92911h-0.46164l-0.46164-0.92911h-0.46164l-0.46164-0.92911h-0.46164l-0.46164-0.92911h-0.46164l-0.46164-0.92911h-0.46164l-0.46164-0.92911h-0.46164l-0.92328-1.8582h-0.46164l-0.2539-0.51101-0.20774-0.4181h-0.46164l-0.46164-0.92911h-0.46164l-0.2539-0.51101-0.20774-0.4181h-0.46164l-0.46164-0.92911h-0.46164l-0.2539-0.51101-0.20774-0.4181h-0.46164l-0.46164-0.92911h-0.46164l-0.2539-0.51101-0.20774-0.4181h-0.46164l-0.92328-1.8582h-0.46164l-0.46164-0.92911h-0.46164l-0.46164-0.92911h-0.46164l-0.46164-0.92911h-0.46164l-0.46164-0.92911h-0.46164l-0.46164-0.92911h-0.46164l-0.46164-0.92911h-0.46164l-0.46164-0.92911h-0.46164l-0.92328-1.8582h-0.46164l-0.46164-0.92911h-0.46164l-0.2539-0.51101-0.20774-0.4181h-0.46164l-0.46164-0.92911h-0.46164l-0.2539-0.51101-0.20774-0.4181h-0.46164l-0.46164-0.92911h-0.46164l-0.2539-0.51101-0.20774-0.4181h-0.46164l-0.46164-0.92911h-0.46164l-0.2539-0.51101-0.66938-1.3472h-0.46164l-0.2539-0.51101-0.20774-0.4181h-0.46164l-0.46164-0.92911h-0.46164l-0.46164-0.92911h-0.46164l-0.46164-0.92911h-0.46164l-0.46164-0.92911h-0.46164l-0.46164-0.92911h-0.46164l-0.46164-0.92911h-0.46164l-0.46164-0.92911-0.46164-0.92911h-0.46164l-0.46164-0.92911h-0.46164l-0.46164-0.92911v0.13937l0.46164 0.92911h0.46164l0.13849 0.27873 0.32315 0.65038h0.46164l0.60013 1.2078 0.32315 0.65038h0.46164l0.46164 0.92911h0.46164l0.13849 0.27873 0.32315 0.65038h0.46164l0.46164 0.92911h0.46164l0.13849 0.27873 0.32315 0.65038h0.46164l0.46164 0.92911h0.46164l0.13849 0.27873 0.32315 0.65038h0.46164l0.46164 0.92911h0.46164l0.13849 0.27873 0.32315 0.65038 0.46164 0.92911h0.46164l0.46164 0.92911h0.46164l0.46164 0.92911h0.46164l0.46164 0.92911h0.46164l0.46164 0.92911h0.46164l0.46164 0.92911h0.46164l0.46164 0.92911h0.46164l0.46164 0.92911h0.46164l0.92328 1.8582h0.46164l0.13849 0.27873 0.32315 0.65038h0.46164l0.46164 0.92911h0.46164l0.13849 0.27873 0.32315 0.65038h0.46164l0.46164 0.92911h0.46164l0.13849 0.27873 0.32315 0.65038h0.46164l0.46164 0.92911h0.46164l0.13849 0.27873 0.32315 0.65038h0.46164l0.60013 1.2078 0.32315 0.65038h0.46164l0.46164 0.92911h0.46164l0.13849 0.27873 0.32315 0.65038h0.46164l0.46164 0.92911h0.46164l0.13849 0.27873 0.32315 0.65038h0.46164l0.46164 0.92911h0.46164l0.13849 0.27873 0.32315 0.65038h0.46164l0.46164 0.92911h0.46164l0.13849 0.27873 0.78479 1.5795h0.46164l0.46164 0.92911h0.46164l0.13849 0.27873 0.32315 0.65038h0.46164l0.46164 0.92911h0.46164l0.46164 0.92911h0.46164l0.46164 0.92911h0.46164l0.46164 0.92911h0.46164l0.92328 1.8582h0.46164l0.46164 0.92911h0.46164l0.13849 0.27873 0.32315 0.65038h0.46164l0.46164 0.92911h0.46164l0.13849 0.27873 0.32315 0.65038h0.46164l0.46164 0.92911h0.46164l0.13849 0.27873 0.32315 0.65038h0.46164l0.46164 0.92911h0.46164l0.13849 0.27873 0.32315 0.65038 0.46164 0.92911h0.46164l0.46164 0.92911h0.46164l0.46164 0.92911h0.46164l0.13849 0.27873 0.32315 0.65038h0.46164l0.46164 0.92911h0.46164l0.13849 0.27873 0.32315 0.65038h0.46164l0.46164 0.92911h0.46164l0.13849 0.27873 0.32315 0.65038h0.46164l0.92328 1.8582h0.46164l0.13849 0.27873 0.32315 0.65038h0.46164l0.46164 0.92911h0.46164l0.13849 0.27873 0.32315 0.65038h0.46164l0.46164 0.92911h0.46164l0.13849 0.27873 0.32315 0.65038h0.46164l0.46164 0.92911h0.46164l0.13849 0.27873 0.32315 0.65038h0.46164l0.60013 1.2078 0.32315 0.65038h0.46164l0.46164 0.92911h0.46164l0.13849 0.27873 0.32315 0.65038h0.46164l0.46164 0.92911h0.46164l0.13849 0.27873 0.32315 0.65038h0.46164l0.46164 0.92911h0.46164l0.13849 0.27873 0.32315 0.65038h0.46164l0.46164 0.92911h0.46164l0.13849 0.27873 0.32315 0.65038 0.46164 0.92911h0.46164l0.46164 0.92911h0.46164l0.46164 0.92911h0.46164l0.46164 0.92911h0.46164l0.46164 0.92911h0.46164l0.46164 0.92911h0.46164l0.46164 0.92911h0.46164l0.46164 0.92911h0.46164l0.46164 0.92911 0.46164 0.92911h0.46164l0.13849 0.27873 0.32315 0.65038h0.46164l0.46164 0.92911h0.46164l0.13849 0.27873 0.32315 0.65038h0.46164l0.46164 0.92911h0.46164l0.13849 0.27873 0.32315 0.65038h0.46164l0.46164 0.92911h0.46164l0.13849 0.27873 0.32315 0.65038h0.46164l0.60013 1.2078 0.32315 0.65038h0.46164l0.46164 0.92911h0.46164l0.13849 0.27873 0.32315 0.65038h0.46164l0.46164 0.92911h0.46164l0.13849 0.27873 0.32315 0.65038h0.46164l0.46164 0.92911h0.46164l0.13849 0.27873 0.32315 0.65038h0.46164l0.46164 0.92911h0.46164l0.13849 0.27873 0.32315 0.65038 0.46164 0.92911h0.46164l0.46164 0.92911h0.46164l0.46164 0.92911h0.46164l0.46164 0.92911h0.46164l0.46164 0.92911h0.46164l0.46164 0.92911h0.46164l0.46164 0.92911h0.46164l0.46164 0.92911h0.46164l0.92328 1.8582h0.46164l0.13849 0.27873 0.32315 0.65038h0.46164l0.46164 0.92911h0.46164l0.13849 0.27873 0.32315 0.65038h0.46164l0.46164 0.92911h0.46164l0.13849 0.27873 0.32315 0.65038h0.46164l0.46164 0.92911h0.46164l0.13849 0.27873 0.32315 0.65038h0.46164l0.60013 1.2078 0.32315 0.65038h0.46164l0.46164 0.92911h0.46164l0.13849 0.27873 0.32315 0.65038h0.46164l0.46164 0.92911h0.46164l0.13849 0.27873 0.32315 0.65038h0.46164l0.46164 0.92911h0.46164l0.13849 0.27873 0.32315 0.65038h0.46164l0.46164 0.92911h0.46164l0.13849 0.27873 0.78479 1.5795h0.46164l0.46164 0.92911h0.46164l0.13849 0.27873 0.32315 0.65038h0.46164l0.46164 0.92911h0.46164l0.46164 0.92911h0.46164l0.46164 0.92911h0.46164l0.13849 0.27873z" clip-path="url(#p74dbf3c2f9)" fill="#00f" fill-opacity=".4"/>
   </g>
   <g id="PathCollection_6">
    <path d="m349.4 193.98h0.46164l0.20774 0.4181h0.069246l-0.27698-0.55747h-0.46164l-0.18466-0.37164-0.27698-0.55747h-0.46164l-0.46164-0.92911h-0.46164l-0.18466-0.37164-0.27698-0.55747h-0.46164l-0.46164-0.92911h-0.46164l-0.46164-0.92911h-0.46164l-0.46164-0.92911h-0.46164l-0.46164-0.92911-0.46164-0.92911h-0.46164l-0.18466-0.37164-0.27698-0.55747h-0.46164l-0.46164-0.92911h-0.46164l-0.18466-0.37164-0.27698-0.55747h-0.46164l-0.46164-0.92911h-0.46164l-0.18466-0.37164-0.27698-0.55747h-0.46164l-0.46164-0.92911h-0.46164l-0.18466-0.37164-0.27698-0.55747h-0.46164l-0.92328-1.8582h-0.46164l-0.46164-0.92911h-0.46164l-0.46164-0.92911h-0.46164l-0.46164-0.92911h-0.46164l-0.46164-0.92911h-0.46164l-0.46164-0.92911h-0.46164l-0.46164-0.92911h-0.46164l-0.46164-0.92911h-0.46164l-0.6463-1.3008-0.27698-0.55747h-0.46164l-0.46164-0.92911h-0.46164l-0.18466-0.37164-0.27698-0.55747h-0.46164l-0.46164-0.92911h-0.46164l-0.18466-0.37164-0.27698-0.55747h-0.46164l-0.46164-0.92911h-0.46164l-0.18466-0.37164-0.27698-0.55747h-0.46164l-0.46164-0.92911h-0.46164l-0.18466-0.37164-0.73863-1.4866h-0.46164l-0.46164-0.92911h-0.46164l-0.46164-0.92911h-0.46164l-0.18466-0.37164-0.27698-0.55747h-0.46164l-0.46164-0.92911h-0.46164l-0.18466-0.37164-0.27698-0.55747h-0.46164l-0.46164-0.92911h-0.46164l-0.18466-0.37164-0.27698-0.55747h-0.46164l-0.92328-1.8582h-0.46164l-0.46164-0.92911h-0.46164l-0.46164-0.92911h-0.46164l-0.46164-0.92911h-0.46164l-0.46164-0.92911h-0.46164l-0.46164-0.92911h-0.46164l-0.46164-0.92911h-0.46164l-0.46164-0.92911h-0.46164l-0.92328-1.8582h-0.46164l-0.46164-0.92911h-0.46164l-0.18466-0.37164-0.27698-0.55747h-0.46164l-0.46164-0.92911h-0.46164l-0.18466-0.37164-0.27698-0.55747h-0.46164l-0.46164-0.92911h-0.46164l-0.18466-0.37164-0.27698-0.55747h-0.46164l-0.46164-0.92911h-0.46164l-0.18466-0.37164-0.73863-1.4866h-0.46164l-0.46164-0.92911h-0.46164l-0.46164-0.92911h-0.46164l-0.46164-0.92911h-0.46164l-0.46164-0.92911h-0.46164l-0.46164-0.92911h-0.46164l-0.46164-0.92911h-0.46164l-0.18466-0.37164-0.27698-0.55747h-0.46164l-0.92328-1.8582h-0.46164l-0.46164-0.92911h-0.46164l-0.46164-0.92911h-0.46164l-0.46164-0.92911h-0.46164l-0.46164-0.92911h-0.46164l-0.46164-0.92911h-0.46164l-0.46164-0.92911h-0.46164l-0.46164-0.92911h-0.46164l-0.6463-1.3008-0.27698-0.55747h-0.46164l-0.46164-0.92911h-0.46164l-0.18466-0.37164-0.27698-0.55747h-0.46164l-0.46164-0.92911h-0.46164l-0.18466-0.37164-0.27698-0.55747h-0.46164l-0.46164-0.92911h-0.46164l-0.18466-0.37164-0.27698-0.55747h-0.46164l-0.46164-0.92911h-0.46164l-0.18466-0.37164-0.73863-1.4866h-0.46164l-0.46164-0.92911h-0.46164l-0.46164-0.92911h-0.46164l-0.46164-0.92911h-0.46164l-0.46164-0.92911h-0.46164l-0.46164-0.92911h-0.46164l-0.46164-0.92911h-0.46164l-0.46164-0.92911h-0.46164l-0.46164-0.92911-0.46164-0.92911h-0.46164l-0.18466-0.37164-0.27698-0.55747h-0.46164l-0.46164-0.92911h-0.46164l-0.18466-0.37164-0.27698-0.55747h-0.46164l-0.46164-0.92911h-0.46164l-0.46164-0.92911h-0.46164l-0.46164-0.92911h-0.46164l-0.46164-0.92911-0.46164-0.92911h-0.46164l-0.18466-0.37164-0.27698-0.55747h-0.46164l-0.46164-0.92911h-0.46164l-0.18466-0.37164-0.27698-0.55747h-0.46164l-0.46164-0.92911h-0.46164l-0.18466-0.37164-0.27698-0.55747h-0.46164l-0.46164-0.92911h-0.46164l-0.18466-0.37164-0.27698-0.55747h-0.46164l-0.46164-0.92911-0.46164-0.92911h-0.46164l-0.46164-0.92911h-0.46164l-0.46164-0.92911h-0.46164l-0.46164-0.92911h-0.46164l-0.46164-0.92911h-0.46164l-0.46164-0.92911h-0.46164l-0.46164-0.92911h-0.46164l-0.46164-0.92911h-0.46164l-0.6463-1.3008-0.27698-0.55747h-0.46164l-0.46164-0.92911h-0.46164l-0.18466-0.37164-0.27698-0.55747h-0.46164l-0.46164-0.92911h-0.46164l-0.18466-0.37164-0.27698-0.55747h-0.46164l-0.46164-0.92911h-0.46164l-0.18466-0.37164-0.27698-0.55747h-0.46164l-0.46164-0.92911h-0.46164l-0.18466-0.37164-0.73863-1.4866h-0.46164l-0.46164-0.92911h-0.46164l-0.46164-0.92911h-0.46164l-0.18466-0.37164-0.27698-0.55747h-0.46164l-0.46164-0.92911h-0.46164l-0.18466-0.37164-0.27698-0.55747h-0.46164l-0.46164-0.92911h-0.46164l-0.18466-0.37164-0.27698-0.55747h-0.46164l-0.92328-1.8582h-0.46164l-0.46164-0.92911h-0.46164l-0.46164-0.92911v0.13937l0.46164 0.92911h0.46164l0.20774 0.4181 0.2539 0.51101h0.46164l0.20774 0.4181 0.46164 0.92911 0.2539 0.51101h0.46164l0.46164 0.92911h0.46164l0.20774 0.4181 0.2539 0.51101h0.46164l0.46164 0.92911h0.46164l0.20774 0.4181 0.2539 0.51101h0.46164l0.46164 0.92911h0.46164l0.20774 0.4181 0.2539 0.51101h0.46164l0.46164 0.92911h0.46164l0.46164 0.92911 0.46164 0.92911h0.46164l0.20774 0.4181 0.2539 0.51101h0.46164l0.46164 0.92911h0.46164l0.20774 0.4181 0.2539 0.51101h0.46164l0.46164 0.92911h0.46164l0.20774 0.4181 0.2539 0.51101h0.46164l0.46164 0.92911h0.46164l0.20774 0.4181 0.2539 0.51101h0.46164l0.92328 1.8582h0.46164l0.20774 0.4181 0.2539 0.51101h0.46164l0.46164 0.92911h0.46164l0.20774 0.4181 0.2539 0.51101h0.46164l0.46164 0.92911h0.46164l0.20774 0.4181 0.2539 0.51101h0.46164l0.46164 0.92911h0.46164l0.20774 0.4181 0.2539 0.51101h0.46164l0.92328 1.8582h0.46164l0.46164 0.92911h0.46164l0.20774 0.4181 0.2539 0.51101h0.46164l0.46164 0.92911h0.46164l0.20774 0.4181 0.2539 0.51101h0.46164l0.46164 0.92911h0.46164l0.20774 0.4181 0.2539 0.51101h0.46164l0.46164 0.92911h0.46164l0.20774 0.4181 0.71554 1.4401h0.46164l0.20774 0.4181 0.2539 0.51101h0.46164l0.20774 0.4181 0.2539 0.51101h0.46164l0.20774 0.4181 0.2539 0.51101h0.46164l0.46164 0.92911h0.46164l0.20774 0.4181 0.2539 0.51101h0.46164l0.46164 0.92911h0.46164l0.20774 0.4181 0.71554 1.4401h0.46164l0.46164 0.92911h0.46164l0.20774 0.4181 0.2539 0.51101h0.46164l0.46164 0.92911h0.46164l0.46164 0.92911h0.46164l0.46164 0.92911h0.46164l0.46164 0.92911h0.46164l0.46164 0.92911h0.46164l0.46164 0.92911 0.46164 0.92911h0.46164l0.20774 0.4181 0.2539 0.51101h0.46164l0.46164 0.92911h0.46164l0.20774 0.4181 0.2539 0.51101h0.46164l0.46164 0.92911h0.46164l0.20774 0.4181 0.2539 0.51101h0.46164l0.46164 0.92911h0.46164l0.20774 0.4181 0.2539 0.51101h0.46164l0.92328 1.8582h0.46164l0.20774 0.4181 0.2539 0.51101h0.46164l0.20774 0.4181 0.2539 0.51101h0.46164l0.20774 0.4181 0.2539 0.51101h0.46164l0.20774 0.4181 0.2539 0.51101h0.46164l0.20774 0.4181 0.2539 0.51101h0.46164l0.20774 0.4181 0.2539 0.51101h0.46164l0.46164 0.92911h0.46164l0.20774 0.4181 0.71554 1.4401h0.46164l0.46164 0.92911h0.46164l0.46164 0.92911h0.46164l0.46164 0.92911h0.46164l0.46164 0.92911h0.46164l0.46164 0.92911h0.46164l0.46164 0.92911h0.46164l0.46164 0.92911h0.46164l0.20774 0.4181 0.71554 1.4401h0.46164l0.20774 0.4181 0.2539 0.51101h0.46164l0.46164 0.92911h0.46164l0.20774 0.4181 0.2539 0.51101h0.46164l0.46164 0.92911h0.46164l0.20774 0.4181 0.2539 0.51101h0.46164l0.46164 0.92911h0.46164l0.20774 0.4181 0.2539 0.51101h0.46164l0.46164 0.92911 0.46164 0.92911h0.46164l0.46164 0.92911h0.46164l0.46164 0.92911h0.46164l0.46164 0.92911h0.46164l0.46164 0.92911h0.46164l0.46164 0.92911h0.46164l0.46164 0.92911h0.46164l0.46164 0.92911h0.46164l0.20774 0.4181 0.71554 1.4401h0.46164l0.46164 0.92911h0.46164l0.20774 0.4181 0.2539 0.51101h0.46164l0.46164 0.92911h0.46164l0.20774 0.4181 0.2539 0.51101h0.46164l0.46164 0.92911h0.46164l0.20774 0.4181 0.2539 0.51101h0.46164l0.46164 0.92911h0.46164l0.20774 0.4181 0.71554 1.4401h0.46164l0.20774 0.4181 0.2539 0.51101h0.46164l0.46164 0.92911h0.46164l0.20774 0.4181 0.2539 0.51101h0.46164l0.46164 0.92911h0.46164l0.20774 0.4181 0.2539 0.51101h0.46164l0.46164 0.92911h0.46164l0.20774 0.4181 0.2539 0.51101h0.46164l0.46164 0.92911 0.46164 0.92911h0.46164l0.46164 0.92911h0.46164l0.46164 0.92911h0.46164l0.46164 0.92911h0.46164l0.46164 0.92911h0.46164l0.20774 0.4181 0.2539 0.51101h0.46164l0.46164 0.92911h0.46164l0.20774 0.4181 0.2539 0.51101h0.46164l0.66938 1.3472 0.2539 0.51101h0.46164l0.46164 0.92911h0.46164l0.20774 0.4181 0.2539 0.51101h0.46164l0.46164 0.92911h0.46164l0.20774 0.4181 0.2539 0.51101h0.46164l0.46164 0.92911h0.46164l0.20774 0.4181 0.2539 0.51101h0.46164l0.46164 0.92911h0.46164l0.20774 0.4181 0.71554 1.4401h0.46164l0.20774 0.4181 0.2539 0.51101h0.46164l0.46164 0.92911h0.46164l0.20774 0.4181 0.2539 0.51101h0.46164l0.46164 0.92911h0.46164l0.20774 0.4181 0.2539 0.51101h0.46164l0.20774 0.4181z" clip-path="url(#p74dbf3c2f9)" fill="#f00" fill-opacity=".4"/>
   </g>
   <g id="PathCollection_7">
    <path d="m349.4 193.84h0.46164l0.27698 0.55747h0.069246l-0.34623-0.69683h-0.46164l-0.11541-0.23228-0.34623-0.69683h-0.46164l-0.46164-0.92911h-0.46164l-0.11541-0.23228-0.34623-0.69683h-0.46164l-0.46164-0.92911h-0.46164l-0.11541-0.23228-0.34623-0.69683h-0.46164l-0.46164-0.92911h-0.46164l-0.11541-0.23228-0.80787-1.6259h-0.46164l-0.46164-0.92911h-0.46164l-0.46164-0.92911h-0.46164l-0.46164-0.92911h-0.46164l-0.46164-0.92911h-0.46164l-0.46164-0.92911h-0.46164l-0.46164-0.92911h-0.46164l-0.46164-0.92911h-0.46164l-0.46164-0.92911-0.46164-0.92911h-0.46164l-0.11541-0.23228-0.34623-0.69683h-0.46164l-0.46164-0.92911h-0.46164l-0.11541-0.23228-0.34623-0.69683h-0.46164l-0.46164-0.92911h-0.46164l-0.11541-0.23228-0.34623-0.69683h-0.46164l-0.46164-0.92911h-0.46164l-0.11541-0.23228-0.34623-0.69683h-0.46164l-0.92328-1.8582h-0.46164l-0.46164-0.92911h-0.46164l-0.46164-0.92911h-0.46164l-0.46164-0.92911h-0.46164l-0.11541-0.23228-0.34623-0.69683h-0.46164l-0.46164-0.92911h-0.46164l-0.11541-0.23228-0.34623-0.69683h-0.46164l-0.46164-0.92911h-0.46164l-0.11541-0.23228-0.80787-1.6259h-0.46164l-0.46164-0.92911h-0.46164l-0.46164-0.92911h-0.46164l-0.46164-0.92911h-0.46164l-0.46164-0.92911h-0.46164l-0.46164-0.92911h-0.46164l-0.46164-0.92911h-0.46164l-0.46164-0.92911h-0.46164l-0.92328-1.8582h-0.46164l-0.11541-0.23228-0.34623-0.69683h-0.46164l-0.46164-0.92911h-0.46164l-0.11541-0.23228-0.34623-0.69683h-0.46164l-0.46164-0.92911h-0.46164l-0.11541-0.23228-0.34623-0.69683h-0.46164l-0.46164-0.92911h-0.46164l-0.11541-0.23228-0.34623-0.69683h-0.46164l-0.46164-0.92911-0.46164-0.92911h-0.46164l-0.46164-0.92911h-0.46164l-0.46164-0.92911h-0.46164l-0.46164-0.92911h-0.46164l-0.46164-0.92911h-0.46164l-0.46164-0.92911h-0.46164l-0.46164-0.92911h-0.46164l-0.46164-0.92911h-0.46164l-0.11541-0.23228-0.80787-1.6259h-0.46164l-0.46164-0.92911h-0.46164l-0.11541-0.23228-0.34623-0.69683h-0.46164l-0.46164-0.92911h-0.46164l-0.11541-0.23228-0.34623-0.69683h-0.46164l-0.46164-0.92911h-0.46164l-0.11541-0.23228-0.34623-0.69683h-0.46164l-0.46164-0.92911h-0.46164l-0.92328-1.8582h-0.46164l-0.11541-0.23228-0.34623-0.69683h-0.46164l-0.46164-0.92911h-0.46164l-0.11541-0.23228-0.34623-0.69683h-0.46164l-0.46164-0.92911h-0.46164l-0.11541-0.23228-0.34623-0.69683h-0.46164l-0.46164-0.92911h-0.46164l-0.11541-0.23228-0.34623-0.69683h-0.46164l-0.46164-0.92911-0.46164-0.92911h-0.46164l-0.46164-0.92911h-0.46164l-0.46164-0.92911h-0.46164l-0.46164-0.92911h-0.46164l-0.46164-0.92911h-0.46164l-0.46164-0.92911h-0.46164l-0.46164-0.92911h-0.46164l-0.46164-0.92911h-0.46164l-0.92328-1.8582h-0.46164l-0.46164-0.92911h-0.46164l-0.11541-0.23228-0.34623-0.69683h-0.46164l-0.46164-0.92911h-0.46164l-0.11541-0.23228-0.34623-0.69683h-0.46164l-0.46164-0.92911h-0.46164l-0.11541-0.23228-0.34623-0.69683h-0.46164l-0.46164-0.92911h-0.46164l-0.11541-0.23228-0.34623-0.69683-0.46164-0.92911h-0.46164l-0.11541-0.23228-0.34623-0.69683h-0.46164l-0.46164-0.92911h-0.46164l-0.11541-0.23228-0.34623-0.69683h-0.46164l-0.46164-0.92911h-0.46164l-0.11541-0.23228-0.34623-0.69683h-0.46164l-0.46164-0.92911h-0.46164l-0.11541-0.23228-0.80787-1.6259h-0.46164l-0.46164-0.92911h-0.46164l-0.46164-0.92911h-0.46164l-0.46164-0.92911h-0.46164l-0.46164-0.92911h-0.46164l-0.46164-0.92911h-0.46164l-0.46164-0.92911h-0.46164l-0.46164-0.92911h-0.46164l-0.46164-0.92911-0.46164-0.92911h-0.46164l-0.11541-0.23228-0.34623-0.69683h-0.46164l-0.46164-0.92911h-0.46164l-0.11541-0.23228-0.34623-0.69683h-0.46164l-0.46164-0.92911h-0.46164l-0.11541-0.23228-0.34623-0.69683h-0.46164l-0.46164-0.92911h-0.46164l-0.11541-0.23228-0.34623-0.69683h-0.46164l-0.46164-0.92911-0.46164-0.92911h-0.46164l-0.46164-0.92911h-0.46164l-0.46164-0.92911h-0.46164l-0.46164-0.92911h-0.46164l-0.11541-0.23228-0.34623-0.69683h-0.46164l-0.46164-0.92911h-0.46164l-0.11541-0.23228-0.34623-0.69683h-0.46164l-0.46164-0.92911h-0.46164l-0.11541-0.23228-0.80787-1.6259h-0.46164l-0.46164-0.92911h-0.46164l-0.46164-0.92911h-0.46164l-0.46164-0.92911h-0.46164l-0.46164-0.92911h-0.46164l-0.46164-0.92911h-0.46164l-0.46164-0.92911h-0.46164l-0.46164-0.92911h-0.46164l-0.46164-0.92911-0.46164-0.92911h-0.46164l-0.11541-0.23228-0.34623-0.69683h-0.46164l-0.46164-0.92911v0.13937l0.27698 0.55747 0.18466 0.37164h0.46164l0.46164 0.92911h0.46164l0.27698 0.55747 0.6463 1.3008h0.46164l0.46164 0.92911h0.46164l0.27698 0.55747 0.18466 0.37164h0.46164l0.46164 0.92911h0.46164l0.27698 0.55747 0.18466 0.37164h0.46164l0.46164 0.92911h0.46164l0.27698 0.55747 0.18466 0.37164h0.46164l0.27698 0.55747 0.18466 0.37164h0.46164l0.46164 0.92911 0.46164 0.92911h0.46164l0.27698 0.55747 0.18466 0.37164h0.46164l0.46164 0.92911h0.46164l0.27698 0.55747 0.18466 0.37164h0.46164l0.46164 0.92911h0.46164l0.27698 0.55747 0.18466 0.37164h0.46164l0.46164 0.92911h0.46164l0.27698 0.55747 0.18466 0.37164h0.46164l0.73863 1.4866 0.18466 0.37164h0.46164l0.46164 0.92911h0.46164l0.27698 0.55747 0.18466 0.37164h0.46164l0.46164 0.92911h0.46164l0.27698 0.55747 0.18466 0.37164h0.46164l0.46164 0.92911h0.46164l0.27698 0.55747 0.18466 0.37164h0.46164l0.46164 0.92911h0.46164l0.27698 0.55747 0.6463 1.3008h0.46164l0.46164 0.92911h0.46164l0.27698 0.55747 0.18466 0.37164h0.46164l0.46164 0.92911h0.46164l0.27698 0.55747 0.18466 0.37164h0.46164l0.46164 0.92911h0.46164l0.27698 0.55747 0.18466 0.37164h0.46164l0.46164 0.92911h0.46164l0.27698 0.55747 0.6463 1.3008h0.46164l0.27698 0.55747 0.18466 0.37164h0.46164l0.46164 0.92911h0.46164l0.27698 0.55747 0.18466 0.37164h0.46164l0.46164 0.92911h0.46164l0.27698 0.55747 0.18466 0.37164h0.46164l0.46164 0.92911h0.46164l0.27698 0.55747 0.6463 1.3008h0.46164l0.27698 0.55747 0.18466 0.37164h0.46164l0.46164 0.92911h0.46164l0.46164 0.92911h0.46164l0.46164 0.92911h0.46164l0.27698 0.55747 0.18466 0.37164h0.46164l0.46164 0.92911h0.46164l0.27698 0.55747 0.18466 0.37164h0.46164l0.46164 0.92911 0.46164 0.92911h0.46164l0.27698 0.55747 0.18466 0.37164h0.46164l0.46164 0.92911h0.46164l0.27698 0.55747 0.18466 0.37164h0.46164l0.46164 0.92911h0.46164l0.27698 0.55747 0.18466 0.37164h0.46164l0.46164 0.92911h0.46164l0.27698 0.55747 0.18466 0.37164h0.46164l0.73863 1.4866 0.18466 0.37164h0.46164l0.46164 0.92911h0.46164l0.27698 0.55747 0.18466 0.37164h0.46164l0.46164 0.92911h0.46164l0.27698 0.55747 0.18466 0.37164h0.46164l0.46164 0.92911h0.46164l0.46164 0.92911h0.46164l0.46164 0.92911h0.46164l0.27698 0.55747 0.6463 1.3008h0.46164l0.46164 0.92911h0.46164l0.46164 0.92911h0.46164l0.27698 0.55747 0.18466 0.37164h0.46164l0.46164 0.92911h0.46164l0.27698 0.55747 0.18466 0.37164h0.46164l0.46164 0.92911h0.46164l0.27698 0.55747 0.18466 0.37164h0.46164l0.46164 0.92911 0.46164 0.92911h0.46164l0.27698 0.55747 0.18466 0.37164h0.46164l0.46164 0.92911h0.46164l0.27698 0.55747 0.18466 0.37164h0.46164l0.46164 0.92911h0.46164l0.27698 0.55747 0.18466 0.37164h0.46164l0.46164 0.92911h0.46164l0.27698 0.55747 0.18466 0.37164h0.46164l0.92328 1.8582h0.46164l0.46164 0.92911h0.46164l0.27698 0.55747 0.18466 0.37164h0.46164l0.46164 0.92911h0.46164l0.27698 0.55747 0.18466 0.37164h0.46164l0.46164 0.92911h0.46164l0.27698 0.55747 0.18466 0.37164h0.46164l0.46164 0.92911h0.46164l0.27698 0.55747 0.6463 1.3008h0.46164l0.46164 0.92911h0.46164l0.27698 0.55747 0.18466 0.37164h0.46164l0.46164 0.92911h0.46164l0.27698 0.55747 0.18466 0.37164h0.46164l0.46164 0.92911h0.46164l0.27698 0.55747 0.18466 0.37164h0.46164l0.27698 0.55747 0.18466 0.37164h0.46164l0.46164 0.92911 0.46164 0.92911h0.46164l0.27698 0.55747 0.18466 0.37164h0.46164l0.46164 0.92911h0.46164l0.46164 0.92911h0.46164l0.46164 0.92911h0.46164l0.27698 0.55747 0.18466 0.37164h0.46164l0.46164 0.92911h0.46164l0.27698 0.55747 0.18466 0.37164h0.46164l0.73863 1.4866 0.18466 0.37164h0.46164l0.46164 0.92911h0.46164l0.27698 0.55747 0.18466 0.37164h0.46164l0.46164 0.92911h0.46164l0.27698 0.55747 0.18466 0.37164h0.46164l0.46164 0.92911h0.46164l0.27698 0.55747 0.18466 0.37164h0.46164l0.46164 0.92911h0.46164l0.27698 0.55747 0.6463 1.3008h0.46164l0.46164 0.92911h0.46164l0.27698 0.55747 0.18466 0.37164h0.46164l0.46164 0.92911h0.46164l0.27698 0.55747 0.18466 0.37164h0.46164l0.46164 0.92911h0.46164l0.46164 0.92911h0.46164l0.46164 0.92911h0.46164l0.27698 0.55747 0.6463 1.3008h0.46164l0.27698 0.55747 0.18466 0.37164h0.46164l0.46164 0.92911h0.46164l0.27698 0.55747 0.18466 0.37164h0.46164l0.46164 0.92911h0.46164l0.27698 0.55747 0.18466 0.37164h0.46164l0.27698 0.55747z" clip-path="url(#p74dbf3c2f9)" fill="#f00" fill-opacity=".4"/>
   </g>
   <g id="PathCollection_8">
    <path d="m349.4 193.7h0.46164l0.34623 0.69683h0.069246l-0.41548-0.8362h-0.46164l-0.46164-0.92911h-0.46164l-0.46164-0.92911h-0.46164l-0.46164-0.92911h-0.46164l-0.46164-0.92911h-0.46164l-0.46164-0.92911h-0.46164l-0.46164-0.92911h-0.46164l-0.46164-0.92911-0.46164-0.92911h-0.46164l-0.46164-0.92911h-0.46164l-0.46164-0.92911h-0.46164l-0.46164-0.92911h-0.46164l-0.46164-0.92911h-0.46164l-0.46164-0.92911h-0.46164l-0.46164-0.92911h-0.46164l-0.46164-0.92911h-0.46164l-0.92328-1.8582h-0.46164l-0.46164-0.92911h-0.46164l-0.46164-0.92911h-0.46164l-0.46164-0.92911h-0.46164l-0.46164-0.92911h-0.46164l-0.046165-0.092911-0.41548-0.8362h-0.46164l-0.46164-0.92911h-0.46164l-0.046165-0.092911-0.41548-0.8362h-0.46164l-0.92328-1.8582h-0.46164l-0.46164-0.92911h-0.46164l-0.46164-0.92911h-0.46164l-0.46164-0.92911h-0.46164l-0.46164-0.92911h-0.46164l-0.46164-0.92911h-0.46164l-0.46164-0.92911h-0.46164l-0.46164-0.92911h-0.46164l-0.92328-1.8582h-0.46164l-0.46164-0.92911h-0.46164l-0.46164-0.92911h-0.46164l-0.46164-0.92911h-0.46164l-0.46164-0.92911h-0.46164l-0.46164-0.92911h-0.46164l-0.46164-0.92911h-0.46164l-0.46164-0.92911h-0.46164l-0.92328-1.8582h-0.46164l-0.46164-0.92911h-0.46164l-0.46164-0.92911h-0.46164l-0.46164-0.92911h-0.46164l-0.46164-0.92911h-0.46164l-0.46164-0.92911h-0.46164l-0.46164-0.92911h-0.46164l-0.46164-0.92911h-0.46164l-0.92328-1.8582h-0.46164l-0.46164-0.92911h-0.46164l-0.46164-0.92911h-0.46164l-0.46164-0.92911h-0.46164l-0.46164-0.92911h-0.46164l-0.46164-0.92911h-0.46164l-0.46164-0.92911h-0.46164l-0.46164-0.92911h-0.46164l-0.92328-1.8582h-0.46164l-0.46164-0.92911h-0.46164l-0.046165-0.092911-0.41548-0.8362h-0.46164l-0.46164-0.92911h-0.46164l-0.046165-0.092911-0.41548-0.8362h-0.46164l-0.46164-0.92911h-0.46164l-0.046165-0.092911-0.41548-0.8362h-0.46164l-0.46164-0.92911h-0.46164l-0.92328-1.8582h-0.46164l-0.46164-0.92911h-0.46164l-0.46164-0.92911h-0.46164l-0.46164-0.92911h-0.46164l-0.46164-0.92911h-0.46164l-0.46164-0.92911h-0.46164l-0.46164-0.92911h-0.46164l-0.46164-0.92911h-0.46164l-0.92328-1.8582h-0.46164l-0.46164-0.92911h-0.46164l-0.46164-0.92911h-0.46164l-0.46164-0.92911h-0.46164l-0.46164-0.92911h-0.46164l-0.46164-0.92911h-0.46164l-0.46164-0.92911h-0.46164l-0.46164-0.92911h-0.46164l-0.92328-1.8582h-0.46164l-0.46164-0.92911h-0.46164l-0.046165-0.092911-0.41548-0.8362h-0.46164l-0.46164-0.92911h-0.46164l-0.046165-0.092911-0.41548-0.8362h-0.46164l-0.46164-0.92911h-0.46164l-0.046165-0.092911-0.41548-0.8362h-0.46164l-0.46164-0.92911h-0.46164l-0.046165-0.092911-0.87712-1.7653h-0.46164l-0.46164-0.92911h-0.46164l-0.46164-0.92911h-0.46164l-0.46164-0.92911h-0.46164l-0.46164-0.92911h-0.46164l-0.46164-0.92911h-0.46164l-0.46164-0.92911h-0.46164l-0.46164-0.92911-0.46164-0.92911h-0.46164l-0.46164-0.92911h-0.46164l-0.46164-0.92911h-0.46164l-0.46164-0.92911h-0.46164l-0.46164-0.92911h-0.46164l-0.46164-0.92911h-0.46164l-0.46164-0.92911h-0.46164l-0.46164-0.92911h-0.46164l-0.46164-0.92911-0.46164-0.92911h-0.46164l-0.46164-0.92911h-0.46164l-0.46164-0.92911h-0.46164l-0.46164-0.92911h-0.46164l-0.46164-0.92911h-0.46164l-0.046165-0.092911-0.41548-0.8362h-0.46164l-0.46164-0.92911h-0.46164l-0.046165-0.092911-0.41548-0.8362h-0.46164l-0.92328-1.8582h-0.46164l-0.46164-0.92911h-0.46164l-0.46164-0.92911h-0.46164l-0.46164-0.92911h-0.46164l-0.46164-0.92911h-0.46164l-0.46164-0.92911h-0.46164l-0.46164-0.92911h-0.46164l-0.46164-0.92911h-0.46164l-0.92328-1.8582h-0.46164l-0.46164-0.92911h-0.46164l-0.46164-0.92911h-0.46164l-0.46164-0.92911h-0.46164l-0.46164-0.92911h-0.46164l-0.46164-0.92911h-0.46164l-0.46164-0.92911h-0.46164l-0.46164-0.92911h-0.46164l-0.92328-1.8582h-0.46164l-0.46164-0.92911h-0.46164l-0.46164-0.92911v0.13937l0.34623 0.69683 0.11541 0.23228h0.46164l0.46164 0.92911h0.46164l0.34623 0.69683 0.46164 0.92911 0.11541 0.23228h0.46164l0.34623 0.69683 0.11541 0.23228h0.46164l0.34623 0.69683 0.11541 0.23228h0.46164l0.34623 0.69683 0.11541 0.23228h0.46164l0.34623 0.69683 0.11541 0.23228h0.46164l0.34623 0.69683 0.11541 0.23228h0.46164l0.46164 0.92911h0.46164l0.46164 0.92911h0.46164l0.46164 0.92911 0.46164 0.92911h0.46164l0.46164 0.92911h0.46164l0.46164 0.92911h0.46164l0.46164 0.92911h0.46164l0.46164 0.92911h0.46164l0.46164 0.92911h0.46164l0.46164 0.92911h0.46164l0.34623 0.69683 0.11541 0.23228h0.46164l0.34623 0.69683 0.46164 0.92911 0.11541 0.23228h0.46164l0.46164 0.92911h0.46164l0.34623 0.69683 0.11541 0.23228h0.46164l0.46164 0.92911h0.46164l0.34623 0.69683 0.11541 0.23228h0.46164l0.46164 0.92911h0.46164l0.34623 0.69683 0.11541 0.23228h0.46164l0.46164 0.92911h0.46164l0.34623 0.69683 0.57705 1.1614h0.46164l0.46164 0.92911h0.46164l0.46164 0.92911h0.46164l0.46164 0.92911h0.46164l0.46164 0.92911h0.46164l0.46164 0.92911h0.46164l0.46164 0.92911h0.46164l0.46164 0.92911h0.46164l0.92328 1.8582h0.46164l0.34623 0.69683 0.11541 0.23228h0.46164l0.46164 0.92911h0.46164l0.34623 0.69683 0.11541 0.23228h0.46164l0.46164 0.92911h0.46164l0.34623 0.69683 0.11541 0.23228h0.46164l0.46164 0.92911h0.46164l0.34623 0.69683 0.57705 1.1614h0.46164l0.34623 0.69683 0.11541 0.23228h0.46164l0.46164 0.92911h0.46164l0.46164 0.92911h0.46164l0.46164 0.92911h0.46164l0.46164 0.92911h0.46164l0.46164 0.92911h0.46164l0.46164 0.92911h0.46164l0.92328 1.8582h0.46164l0.46164 0.92911h0.46164l0.46164 0.92911h0.46164l0.46164 0.92911h0.46164l0.46164 0.92911h0.46164l0.34623 0.69683 0.11541 0.23228h0.46164l0.34623 0.69683 0.11541 0.23228h0.46164l0.34623 0.69683 0.11541 0.23228h0.46164l0.34623 0.69683 0.46164 0.92911 0.11541 0.23228h0.46164l0.46164 0.92911h0.46164l0.34623 0.69683 0.11541 0.23228h0.46164l0.46164 0.92911h0.46164l0.34623 0.69683 0.11541 0.23228h0.46164l0.46164 0.92911h0.46164l0.46164 0.92911h0.46164l0.46164 0.92911h0.46164l0.92328 1.8582h0.46164l0.46164 0.92911h0.46164l0.46164 0.92911h0.46164l0.46164 0.92911h0.46164l0.46164 0.92911h0.46164l0.46164 0.92911h0.46164l0.46164 0.92911h0.46164l0.46164 0.92911h0.46164l0.46164 0.92911 0.46164 0.92911h0.46164l0.34623 0.69683 0.11541 0.23228h0.46164l0.34623 0.69683 0.11541 0.23228h0.46164l0.34623 0.69683 0.11541 0.23228h0.46164l0.34623 0.69683 0.11541 0.23228h0.46164l0.34623 0.69683 0.11541 0.23228h0.46164l0.34623 0.69683 0.11541 0.23228h0.46164l0.34623 0.69683 0.11541 0.23228h0.46164l0.34623 0.69683 0.57705 1.1614h0.46164l0.46164 0.92911h0.46164l0.46164 0.92911h0.46164l0.46164 0.92911h0.46164l0.46164 0.92911h0.46164l0.46164 0.92911h0.46164l0.46164 0.92911h0.46164l0.46164 0.92911h0.46164l0.92328 1.8582h0.46164l0.34623 0.69683 0.11541 0.23228h0.46164l0.34623 0.69683 0.11541 0.23228h0.46164l0.34623 0.69683 0.11541 0.23228h0.46164l0.34623 0.69683 0.11541 0.23228h0.46164l0.34623 0.69683 0.11541 0.23228h0.46164l0.34623 0.69683 0.11541 0.23228h0.46164l0.34623 0.69683 0.11541 0.23228h0.46164l0.46164 0.92911 0.46164 0.92911h0.46164l0.34623 0.69683 0.11541 0.23228h0.46164l0.46164 0.92911h0.46164l0.46164 0.92911h0.46164l0.46164 0.92911h0.46164l0.46164 0.92911h0.46164l0.46164 0.92911h0.46164l0.46164 0.92911h0.46164l0.92328 1.8582h0.46164l0.46164 0.92911h0.46164l0.46164 0.92911h0.46164l0.46164 0.92911h0.46164l0.34623 0.69683 0.11541 0.23228h0.46164l0.46164 0.92911h0.46164l0.34623 0.69683 0.11541 0.23228h0.46164l0.46164 0.92911h0.46164l0.34623 0.69683 0.46164 0.92911 0.11541 0.23228h0.46164l0.34623 0.69683 0.11541 0.23228h0.46164l0.34623 0.69683 0.11541 0.23228h0.46164l0.34623 0.69683 0.11541 0.23228h0.46164l0.34623 0.69683 0.11541 0.23228h0.46164l0.34623 0.69683 0.11541 0.23228h0.46164l0.46164 0.92911h0.46164l0.46164 0.92911h0.46164l0.92328 1.8582h0.46164l0.46164 0.92911h0.46164l0.46164 0.92911h0.46164l0.46164 0.92911h0.46164l0.46164 0.92911h0.46164l0.46164 0.92911h0.46164l0.34623 0.69683z" clip-path="url(#p74dbf3c2f9)" fill="#f00" fill-opacity=".4"/>
   </g>
   <g id="PathCollection_9">
    <path d="m349.4 193.56h0.46164l0.41548 0.8362h0.046164 0.46164 0.46164 0.46164 0.46164 0.46164 0.46164 0.46164 0.46164 0.46164 0.46164 0.46164 0.46164 0.46164 0.46164 0.46164 0.46164 0.46164 0.46164 0.46164 0.46164 0.46164 0.46164 0.46164 0.46164 0.46164 0.46164 0.46164 0.46164 0.46164 0.46164 0.46164 0.46164 0.46164 0.46164 0.46164 0.46164 0.46164 0.46164 0.46164 0.46164 0.46164 0.46164 0.46164 0.46164 0.46164 0.46164 0.46164 0.46164 0.46164 0.46164 0.46164 0.46164 0.46164 0.46164 0.46164 0.46164 0.46164 0.46164 0.46164 0.46164 0.46164 0.46164 0.46164 0.46164 0.46164 0.46164 0.46164 0.46164 0.46164 0.46164 0.46164 0.46164 0.46164 0.46164 0.46164 0.46164 0.46164 0.46164 0.46164 0.46164 0.46164 0.46164 0.46164 0.46164 0.46164 0.46164 0.46164 0.46164 0.46164 0.46164 0.46164 0.46164 0.46164 0.46164 0.46164 0.46164 0.46164 0.46164 0.46164 0.46164 0.46164 0.46164 0.46164 0.46164 0.46164 0.46164 0.46164 0.46164 0.46164 0.46164 0.46164 0.46164 0.46164 0.46164 0.46164 0.46164 0.46164 0.46164 0.46164 0.46164 0.46164 0.46164 0.46164 0.46164 0.46164 0.46164 0.46164 0.46164 0.46164 0.46164 0.46164 0.46164 0.46164 0.46164 0.46164 0.46164 0.46164 0.46164 0.46164 0.46164 0.46164 0.46164 0.46164 0.46164 0.46164 0.46164 0.46164 0.46164 0.46164 0.46164 0.46164 0.46164 0.46164 0.46164 0.46164 0.46164 0.46164 0.46164 0.46164 0.46164 0.46164 0.46164 0.46164 0.46164 0.46164 0.46164 0.46164 0.46164 0.46164 0.46164 0.46164 0.46164 0.46164 0.46164 0.46164 0.46164v-0.92911-0.92911-0.92911-0.92911-0.92911-0.92911-0.92911-0.92911-0.92911-0.92911-0.92911-0.92911-0.92911-0.92911-0.92911-0.92911-0.92911-0.92911-0.92911-0.92911-0.92911-0.92911-0.92911-0.92911-0.92911-0.92911-0.92911-0.92911-0.92911-0.92911-0.92911-0.92911-0.92911-0.92911-0.92911-0.92911-0.92911-0.92911-0.92911-0.92911-0.92911-0.92911-0.92911-0.92911-0.92911-0.92911-0.92911-0.92911-0.92911-0.92911-0.92911-0.92911-0.92911-0.92911-0.92911-0.92911-0.92911-0.92911-0.92911-0.92911-0.92911-0.92911-0.92911-0.92911-0.92911-0.92911-0.92911-0.92911-0.92911-0.92911-0.92911-0.92911-0.92911-0.92911-0.92911-0.92911-0.92911-0.92911-0.92911-0.92911-0.92911-0.92911-0.92911-0.92911-0.92911-0.92911-0.92911-0.92911-0.92911-0.92911-0.92911-0.92911-0.92911-0.92911-0.92911-0.92911-0.92911-0.92911-0.92911-0.92911-0.92911-0.92911-0.92911-0.92911-0.92911-0.92911-0.92911-0.92911-0.92911-0.92911-0.92911-0.92911-0.92911-0.92911-0.92911-0.92911-0.92911-0.92911-0.92911-0.92911-0.92911-0.92911-0.92911-0.92911-0.92911-0.92911-0.92911-0.92911-0.92911-0.92911-0.92911-0.92911-0.92911-0.92911-0.92911-0.92911-0.92911-0.92911-0.92911-0.92911-0.92911-0.92911-0.92911-0.92911-0.92911-0.92911-0.92911-0.92911-0.92911-0.92911-0.92911-0.92911-0.92911-0.92911-0.92911-0.92911-0.92911-0.92911-0.92911-0.92911-0.92911-0.92911-0.92911-0.92911-0.92911-0.92911-0.92911-0.92911-0.92911-0.92911-0.92911-0.92911-0.92911-0.92911-0.92911-0.92911-0.92911-0.92911-0.92911-0.92911-0.92911-0.92911-0.92911-0.92911-0.92911-0.92911-0.92911-0.92911-0.92911-0.92911-0.92911-0.92911-0.92911-0.92911-0.92911-0.92911-0.92911-0.92911-0.92911-0.92911-0.92911-0.92911-0.92911-0.92911-0.92911-0.92911-0.92911-0.92911-0.92911h-0.46164-0.46164-0.46164-0.46164-0.46164-0.46164-0.46164-0.46164-0.46164-0.46164-0.46164-0.46164-0.46164-0.46164-0.46164-0.46164-0.46164-0.46164-0.46164-0.46164-0.46164-0.46164-0.46164-0.46164-0.46164-0.46164-0.46164-0.46164-0.46164-0.46164-0.46164-0.46164-0.46164-0.46164-0.46164-0.46164-0.46164-0.46164-0.46164-0.46164-0.46164-0.46164-0.46164-0.46164-0.46164-0.46164-0.46164-0.46164-0.46164-0.46164-0.46164-0.46164-0.46164-0.46164-0.46164-0.46164-0.46164-0.46164-0.46164-0.46164-0.46164-0.46164-0.46164-0.46164-0.46164-0.46164-0.46164-0.46164-0.46164-0.46164-0.46164-0.46164-0.46164-0.46164-0.46164-0.46164-0.46164-0.46164-0.46164-0.46164-0.46164-0.46164-0.46164-0.46164-0.46164-0.46164-0.46164-0.46164-0.46164-0.46164-0.46164-0.46164-0.46164-0.46164-0.46164-0.46164-0.46164-0.46164-0.46164-0.46164-0.46164-0.46164-0.46164-0.46164-0.46164-0.46164-0.46164-0.46164-0.46164-0.46164-0.46164-0.46164-0.46164-0.46164-0.46164-0.46164-0.46164-0.46164-0.46164-0.46164-0.46164-0.46164-0.46164-0.46164-0.46164-0.46164-0.46164-0.46164-0.46164-0.46164-0.46164-0.46164-0.46164-0.46164-0.46164-0.46164-0.46164-0.46164-0.46164-0.46164-0.46164-0.46164-0.46164-0.46164-0.46164-0.46164-0.46164-0.46164-0.46164-0.46164-0.46164-0.46164-0.46164-0.46164-0.46164-0.46164-0.46164-0.46164-0.46164-0.46164-0.46164-0.46164-0.46164-0.46164-0.46164-0.46164-0.46164-0.46164-0.46164-0.46164-0.46164-0.46164-0.46164-0.46164-0.46164-0.46164-0.46164-0.46164-0.46164-0.46164-0.46164-0.46164-0.46164-0.46164-0.46164-0.46164-0.46164-0.46164-0.46164-0.46164-0.46164-0.46164-0.46164-0.46164-0.46164-0.46164-0.46164-0.46164-0.46164-0.46164-0.46164-0.46164-0.46164-0.46164-0.46164-0.46164-0.46164-0.46164-0.46164-0.46164-0.46164-0.46164-0.46164-0.46164-0.46164-0.46164-0.46164-0.46164-0.46164-0.46164-0.46164-0.46164-0.46164-0.46164-0.46164-0.46164-0.46164-0.46164-0.46164-0.46164-0.46164-0.46164-0.46164-0.46164-0.46164-0.46164-0.46164-0.46164-0.46164-0.46164-0.46164-0.46164-0.46164-0.46164-0.46164-0.46164-0.46164-0.46164-0.46164-0.46164-0.46164-0.46164-0.46164-0.46164-0.46164-0.46164-0.46164-0.46164-0.46164-0.46164-0.46164-0.46164-0.46164-0.46164-0.46164-0.46164-0.46164-0.46164-0.46164-0.46164-0.46164-0.46164-0.46164-0.46164-0.46164-0.46164-0.46164-0.46164-0.46164-0.46164-0.46164-0.46164-0.46164-0.46164-0.46164-0.46164-0.46164-0.46164-0.46164-0.46164-0.46164-0.46164-0.46164-0.46164-0.46164-0.46164-0.46164-0.46164-0.46164-0.46164-0.46164-0.46164-0.46164-0.46164-0.46164-0.46164-0.46164-0.46164-0.46164-0.46164-0.46164-0.46164-0.46164-0.46164-0.46164-0.46164-0.46164-0.46164-0.46164-0.46164-0.46164-0.46164-0.46164-0.46164-0.46164-0.46164-0.46164-0.46164-0.46164-0.46164-0.46164-0.46164-0.46164-0.46164-0.46164-0.46164-0.46164-0.46164-0.46164-0.46164-0.46164-0.46164-0.46164-0.46164-0.46164-0.46164-0.46164-0.46164-0.46164-0.46164-0.46164-0.46164-0.46164-0.46164-0.46164-0.46164-0.46164-0.46164-0.46164-0.46164-0.46164-0.46164-0.46164-0.46164-0.46164-0.46164-0.46164-0.46164-0.46164-0.46164-0.46164-0.46164-0.46164-0.46164-0.46164-0.46164-0.46164-0.46164-0.46164-0.46164-0.46164-0.46164-0.46164-0.46164-0.46164-0.46164-0.46164-0.46164-0.46164-0.46164-0.46164-0.46164-0.46164-0.46164-0.46164-0.46164-0.46164-0.46164-0.46164-0.46164-0.46164-0.46164-0.46164-0.46164-0.46164-0.46164-0.46164-0.46164-0.46164-0.46164-0.46164-0.46164-0.46164-0.46164-0.46164-0.46164-0.46164-0.46164-0.46164-0.46164-0.46164-0.46164-0.46164-0.46164-0.46164-0.46164-0.46164-0.46164-0.46164-0.46164-0.46164-0.46164-0.46164-0.46164-0.46164-0.46164-0.46164-0.46164-0.46164-0.46164-0.46164-0.46164-0.46164-0.46164-0.46164-0.46164-0.46164-0.46164-0.46164v0.92911 0.92911 0.92911 0.92911 0.92911 0.92911 0.92911 0.92911 0.92911 0.92911 0.92911 0.92911 0.92911 0.92911 0.92911 0.92911 0.92911 0.92911 0.92911 0.92911 0.92911 0.92911 0.92911 0.92911 0.92911 0.92911 0.92911 0.92911 0.92911 0.92911 0.92911 0.92911 0.92911 0.92911 0.92911 0.92911 0.92911 0.92911 0.92911 0.92911 0.92911 0.92911 0.92911 0.92911 0.92911 0.92911 0.92911 0.92911 0.92911 0.92911 0.92911 0.92911 0.92911 0.92911 0.92911 0.92911 0.92911 0.92911 0.92911 0.92911 0.92911 0.92911 0.92911 0.92911 0.092911l0.46164 0.92911h0.46164l0.41548 0.8362 0.046164 0.092911h0.46164l0.92328 1.8582h0.46164l0.46164 0.92911h0.46164l0.46164 0.92911h0.46164l0.46164 0.92911h0.46164l0.46164 0.92911h0.46164l0.46164 0.92911h0.46164l0.46164 0.92911h0.46164l0.46164 0.92911h0.46164l0.87712 1.7653 0.046164 0.092911h0.46164l0.46164 0.92911h0.46164l0.46164 0.92911h0.46164l0.46164 0.92911h0.46164l0.46164 0.92911h0.46164l0.46164 0.92911h0.46164l0.46164 0.92911h0.46164l0.46164 0.92911h0.46164l0.92328 1.8582h0.46164l0.46164 0.92911h0.46164l0.46164 0.92911h0.46164l0.46164 0.92911h0.46164l0.46164 0.92911h0.46164l0.41548 0.8362 0.046164 0.092911h0.46164l0.46164 0.92911h0.46164l0.41548 0.8362 0.046164 0.092911h0.46164l0.41548 0.8362 0.5078 1.022h0.46164l0.46164 0.92911h0.46164l0.46164 0.92911h0.46164l0.46164 0.92911h0.46164l0.46164 0.92911h0.46164l0.46164 0.92911h0.46164l0.46164 0.92911h0.46164l0.46164 0.92911h0.46164l0.87712 1.7653 0.046164 0.092911h0.46164l0.46164 0.92911h0.46164l0.41548 0.8362 0.046164 0.092911h0.46164l0.46164 0.92911h0.46164l0.46164 0.92911h0.46164l0.46164 0.92911h0.46164l0.46164 0.92911h0.46164l0.92328 1.8582h0.46164l0.46164 0.92911h0.46164l0.46164 0.92911h0.46164l0.46164 0.92911h0.46164l0.46164 0.92911h0.46164l0.46164 0.92911h0.46164l0.46164 0.92911h0.46164l0.46164 0.92911h0.46164l0.87712 1.7653 0.046164 0.092911h0.46164l0.46164 0.92911h0.46164l0.46164 0.92911h0.46164l0.46164 0.92911h0.46164l0.46164 0.92911h0.46164l0.46164 0.92911h0.46164l0.46164 0.92911h0.46164l0.46164 0.92911h0.46164l0.92328 1.8582h0.46164l0.41548 0.8362 0.046164 0.092911h0.46164l0.46164 0.92911h0.46164l0.41548 0.8362 0.046164 0.092911h0.46164l0.46164 0.92911h0.46164l0.41548 0.8362 0.046164 0.092911h0.46164l0.46164 0.92911h0.46164l0.41548 0.8362 0.046164 0.092911h0.46164l0.92328 1.8582h0.46164l0.46164 0.92911h0.46164l0.46164 0.92911h0.46164l0.46164 0.92911h0.46164l0.46164 0.92911h0.46164l0.46164 0.92911h0.46164l0.46164 0.92911h0.46164l0.46164 0.92911h0.46164l0.87712 1.7653 0.046164 0.092911h0.46164l0.46164 0.92911h0.46164l0.46164 0.92911h0.46164l0.46164 0.92911h0.46164l0.46164 0.92911h0.46164l0.46164 0.92911h0.46164l0.46164 0.92911h0.46164l0.46164 0.92911h0.46164l0.92328 1.8582h0.46164l0.41548 0.8362 0.046164 0.092911h0.46164l0.46164 0.92911h0.46164l0.41548 0.8362 0.046164 0.092911h0.46164l0.46164 0.92911h0.46164l0.41548 0.8362 0.046164 0.092911h0.46164l0.46164 0.92911h0.46164l0.41548 0.8362 0.046164 0.092911h0.46164l0.92328 1.8582h0.46164l0.46164 0.92911h0.46164l0.46164 0.92911h0.46164l0.46164 0.92911h0.46164l0.46164 0.92911h0.46164l0.46164 0.92911h0.46164l0.46164 0.92911h0.46164l0.46164 0.92911h0.46164l0.87712 1.7653 0.046164 0.092911h0.46164l0.46164 0.92911h0.46164l0.46164 0.92911h0.46164l0.46164 0.92911h0.46164l0.46164 0.92911h0.46164l0.46164 0.92911h0.46164l0.46164 0.92911h0.46164l0.46164 0.92911h0.46164l0.92328 1.8582h0.46164l0.46164 0.92911h0.46164l0.46164 0.92911h0.46164l0.46164 0.92911h0.46164l0.46164 0.92911h0.46164l0.41548 0.8362 0.046164 0.092911h0.46164l0.46164 0.92911h0.46164l0.41548 0.8362 0.046164 0.092911h0.46164l0.92328 1.8582h0.46164l0.46164 0.92911h0.46164l0.46164 0.92911h0.46164l0.46164 0.92911h0.46164l0.46164 0.92911h0.46164l0.46164 0.92911h0.46164l0.46164 0.92911h0.46164l0.46164 0.92911h0.46164l0.87712 1.7653 0.046164 0.092911h0.46164l0.46164 0.92911h0.46164l0.41548 0.8362 0.046164 0.092911h0.46164l0.46164 0.92911h0.46164l0.46164 0.92911h0.46164l0.46164 0.92911h0.46164l0.41548 0.8362z" clip-path="url(#p74dbf3c2f9)" fill="#f00" fill-opacity=".4"/>
   </g>
   <g id="PathCollection_10">
    <g clip-path="url(#p74dbf3c2f9)" fill="#0000ff" fill-opacity=".8" stroke="#0000ff" stroke-opacity=".8" stroke-width="1.5">
     <use x="251.989552" y="166.526699" xlink:href="#m81559f5191"/>
     <use x="251.989552" y="166.526699" xlink:href="#m81559f5191"/>
     <use x="247.37314" y="166.526699" xlink:href="#m81559f5191"/>
     <use x="256.605965" y="166.526699" xlink:href="#m81559f5191"/>
     <use x="251.989552" y="166.526699" xlink:href="#m81559f5191"/>
     <use x="265.83879" y="147.944498" xlink:href="#m81559f5191"/>
     <use x="251.989552" y="157.235598" xlink:href="#m81559f5191"/>
     <use x="256.605965" y="166.526699" xlink:href="#m81559f5191"/>
     <use x="251.989552" y="166.526699" xlink:href="#m81559f5191"/>
     <use x="256.605965" y="175.817799" xlink:href="#m81559f5191"/>
     <use x="256.605965" y="166.526699" xlink:href="#m81559f5191"/>
     <use x="261.222377" y="166.526699" xlink:href="#m81559f5191"/>
     <use x="251.989552" y="175.817799" xlink:href="#m81559f5191"/>
     <use x="238.140315" y="175.817799" xlink:href="#m81559f5191"/>
     <use x="242.756727" y="166.526699" xlink:href="#m81559f5191"/>
     <use x="256.605965" y="147.944498" xlink:href="#m81559f5191"/>
     <use x="247.37314" y="147.944498" xlink:href="#m81559f5191"/>
     <use x="251.989552" y="157.235598" xlink:href="#m81559f5191"/>
     <use x="265.83879" y="157.235598" xlink:href="#m81559f5191"/>
     <use x="256.605965" y="157.235598" xlink:href="#m81559f5191"/>
     <use x="265.83879" y="166.526699" xlink:href="#m81559f5191"/>
     <use x="256.605965" y="147.944498" xlink:href="#m81559f5191"/>
     <use x="233.523902" y="166.526699" xlink:href="#m81559f5191"/>
     <use x="265.83879" y="138.653397" xlink:href="#m81559f5191"/>
     <use x="275.071615" y="166.526699" xlink:href="#m81559f5191"/>
     <use x="261.222377" y="166.526699" xlink:href="#m81559f5191"/>
     <use x="261.222377" y="147.944498" xlink:href="#m81559f5191"/>
     <use x="256.605965" y="166.526699" xlink:href="#m81559f5191"/>
     <use x="251.989552" y="166.526699" xlink:href="#m81559f5191"/>
     <use x="261.222377" y="166.526699" xlink:href="#m81559f5191"/>
     <use x="261.222377" y="166.526699" xlink:href="#m81559f5191"/>
     <use x="256.605965" y="147.944498" xlink:href="#m81559f5191"/>
     <use x="256.605965" y="175.817799" xlink:href="#m81559f5191"/>
     <use x="251.989552" y="166.526699" xlink:href="#m81559f5191"/>
     <use x="256.605965" y="166.526699" xlink:href="#m81559f5191"/>
     <use x="242.756727" y="166.526699" xlink:href="#m81559f5191"/>
     <use x="247.37314" y="166.526699" xlink:href="#m81559f5191"/>
     <use x="251.989552" y="175.817799" xlink:href="#m81559f5191"/>
     <use x="247.37314" y="166.526699" xlink:href="#m81559f5191"/>
     <use x="256.605965" y="166.526699" xlink:href="#m81559f5191"/>
     <use x="247.37314" y="157.235598" xlink:href="#m81559f5191"/>
     <use x="247.37314" y="157.235598" xlink:href="#m81559f5191"/>
     <use x="247.37314" y="166.526699" xlink:href="#m81559f5191"/>
     <use x="261.222377" y="129.362297" xlink:href="#m81559f5191"/>
     <use x="275.071615" y="147.944498" xlink:href="#m81559f5191"/>
     <use x="251.989552" y="157.235598" xlink:href="#m81559f5191"/>
     <use x="261.222377" y="166.526699" xlink:href="#m81559f5191"/>
     <use x="251.989552" y="166.526699" xlink:href="#m81559f5191"/>
     <use x="256.605965" y="166.526699" xlink:href="#m81559f5191"/>
     <use x="251.989552" y="166.526699" xlink:href="#m81559f5191"/>
    </g>
   </g>
   <g id="PathCollection_11">
    <g clip-path="url(#p74dbf3c2f9)" fill="#ff0000" fill-opacity=".8" stroke="#000000" stroke-opacity=".8">
     <use x="404.331166" y="55.033493" xlink:href="#m60472b6a92"/>
     <use x="395.098341" y="45.742392" xlink:href="#m60472b6a92"/>
     <use x="413.563991" y="45.742392" xlink:href="#m60472b6a92"/>
     <use x="372.016278" y="64.324593" xlink:href="#m60472b6a92"/>
     <use x="399.714753" y="45.742392" xlink:href="#m60472b6a92"/>
     <use x="395.098341" y="64.324593" xlink:href="#m60472b6a92"/>
     <use x="404.331166" y="36.451292" xlink:href="#m60472b6a92"/>
     <use x="339.70139" y="92.197895" xlink:href="#m60472b6a92"/>
     <use x="399.714753" y="64.324593" xlink:href="#m60472b6a92"/>
     <use x="367.399866" y="55.033493" xlink:href="#m60472b6a92"/>
     <use x="348.934216" y="92.197895" xlink:href="#m60472b6a92"/>
     <use x="381.249103" y="45.742392" xlink:href="#m60472b6a92"/>
     <use x="372.016278" y="92.197895" xlink:href="#m60472b6a92"/>
     <use x="404.331166" y="55.033493" xlink:href="#m60472b6a92"/>
     <use x="353.550628" y="64.324593" xlink:href="#m60472b6a92"/>
     <use x="390.481928" y="55.033493" xlink:href="#m60472b6a92"/>
     <use x="395.098341" y="45.742392" xlink:href="#m60472b6a92"/>
     <use x="376.632691" y="92.197895" xlink:href="#m60472b6a92"/>
     <use x="395.098341" y="45.742392" xlink:href="#m60472b6a92"/>
     <use x="367.399866" y="82.906794" xlink:href="#m60472b6a92"/>
     <use x="408.947579" y="17.869091" xlink:href="#m60472b6a92"/>
     <use x="372.016278" y="64.324593" xlink:href="#m60472b6a92"/>
     <use x="413.563991" y="45.742392" xlink:href="#m60472b6a92"/>
     <use x="404.331166" y="73.615694" xlink:href="#m60472b6a92"/>
     <use x="385.865516" y="64.324593" xlink:href="#m60472b6a92"/>
     <use x="390.481928" y="55.033493" xlink:href="#m60472b6a92"/>
     <use x="408.947579" y="55.033493" xlink:href="#m60472b6a92"/>
     <use x="418.180404" y="27.160191" xlink:href="#m60472b6a92"/>
     <use x="395.098341" y="45.742392" xlink:href="#m60472b6a92"/>
     <use x="348.934216" y="92.197895" xlink:href="#m60472b6a92"/>
     <use x="362.783453" y="82.906794" xlink:href="#m60472b6a92"/>
     <use x="358.167041" y="92.197895" xlink:href="#m60472b6a92"/>
     <use x="367.399866" y="73.615694" xlink:href="#m60472b6a92"/>
     <use x="422.796816" y="36.451292" xlink:href="#m60472b6a92"/>
     <use x="395.098341" y="45.742392" xlink:href="#m60472b6a92"/>
     <use x="395.098341" y="36.451292" xlink:href="#m60472b6a92"/>
     <use x="404.331166" y="45.742392" xlink:href="#m60472b6a92"/>
     <use x="390.481928" y="64.324593" xlink:href="#m60472b6a92"/>
     <use x="376.632691" y="64.324593" xlink:href="#m60472b6a92"/>
     <use x="372.016278" y="64.324593" xlink:href="#m60472b6a92"/>
     <use x="390.481928" y="73.615694" xlink:href="#m60472b6a92"/>
     <use x="399.714753" y="55.033493" xlink:href="#m60472b6a92"/>
     <use x="372.016278" y="73.615694" xlink:href="#m60472b6a92"/>
     <use x="339.70139" y="92.197895" xlink:href="#m60472b6a92"/>
     <use x="381.249103" y="64.324593" xlink:href="#m60472b6a92"/>
     <use x="381.249103" y="73.615694" xlink:href="#m60472b6a92"/>
     <use x="381.249103" y="64.324593" xlink:href="#m60472b6a92"/>
     <use x="385.865516" y="64.324593" xlink:href="#m60472b6a92"/>
     <use x="325.852153" y="82.906794" xlink:href="#m60472b6a92"/>
     <use x="376.632691" y="64.324593" xlink:href="#m60472b6a92"/>
    </g>
   </g>
   <g id="matplotlib.axis_3">
    <g id="text_2">
     <!-- 感知机找到的分界线 -->
     <defs>
      <path id="SimHei-24863" d="m26.172 44.141h26.953v-20.703h-26.953zm55.859 31.641q-2.3438-2.3438-4.6875-5.4688-2.3438 1.9531-7.8125 6.6406 1.5625 2.7344 3.9062 5.0781 1.9531-1.1719 8.5938-6.25zm5.8594-43.75q3.5156-3.125 7.4219-4.6875-3.5156-10.156-8.5938-11.531-5.0781-1.3594-16.797 9.1875-4.6875-5.0781-9.7656-8.9844-2.7344 3.5156-6.25 5.4688 7.4219 3.9062 11.719 9.7656-3.9062 7.0312-5.8594 14.844t-3.125 17.578h-34.375q0-18.75-0.59375-25.203-0.57812-6.4375-2.5312-12.109-1.9531-5.6562-5.8594-12.297-4.2969 3.5156-7.8125 4.6875 5.0781 5.4688 7.0312 11.328t2.3438 13.672 0 25.781h41.016q0 3.5156-0.39062 11.719 3.9062-0.78125 8.2031-1.1719-0.78125-4.6875-0.39062-10.547h17.188q5.4688 0 12.5 0.39062v-6.6406q-7.0312 0.39062-12.109 0.39062h-17.188q1.5625-17.578 6.6406-25.781 2.3438 3.9062 4.2969 9.7656t2.7344 10.938q4.2969-1.5625 8.9844-2.7344-1.9531-1.5625-4.2969-8.4062-2.3438-6.8281-7.4219-16.594 8.5938-8.5938 10.344-6.4531 1.7656 2.1562 2.9375 7.625zm-61.328 24.609h26.172v-5.4688h-26.172zm6.25-17.969v-9.7656h13.672v9.7656zm-14.844-45.312q-3.5156 1.9531-6.6406 3.125 2.7344 4.2969 7.4219 17.188 2.7344-1.1719 6.6406-2.7344-4.6875-11.719-7.4219-17.578zm48.438 13.672q3.125-1.5625 7.4219-3.5156-3.125-7.8125-4.8906-9.1719-1.75-1.375-4.0938-1.375h-27.344q-5.8594 0-6.4531 3.3281-0.57812 3.3125-0.57812 8.1875 0 4.8906-0.39062 9.1875h7.8125q-0.39062-5.0781-0.39062-7.625 0-2.5312 0.1875-4.875 0.20312-2.3438 4.8906-2.3438h18.359q2.3438 0 3.3125 1.3594 0.98438 1.375 2.1562 6.8438zm-15.625-3.5156q-1.1719 3.125-4.6875 11.328 2.7344 1.1719 6.6406 2.3438 3.5156-8.2031 4.6875-10.938-3.5156-0.78125-6.6406-2.7344zm24.219 6.25q2.3438 1.9531 5.0781 4.2969 8.2031-10.156 10.938-13.672-3.125-1.9531-5.8594-4.2969-3.9062 6.6406-10.156 13.672z"/>
      <path id="SimHei-30693" d="m16.016-10.156q-2.7344 3.9062-8.2031 5.4688 5.4688 3.9062 9.5625 9.9531 4.1094 6.0625 6.8438 12.5 2.7344 6.4531 3.5156 12.703-13.672 0-19.531-0.39062v7.4219q5.4688-0.39062 20.703-0.39062 0.78125 8.2031 0.78125 20.312h-7.8125q-1.9531-5.8594-5.8594-13.281-4.2969 1.9531-8.5938 3.125 2.7344 3.5156 5.6562 9.7656 2.9375 6.25 4.5 12.297 1.5625 6.0625 1.9531 10.359 5.0781-1.1719 10.156-1.9531-1.9531-2.3438-3.125-6.0625-1.1719-3.7031-2.3438-8 20.703 0 26.172 0.39062v-7.0312q-6.6406 0.39062-12.891 0.39062 0-8.9844-0.78125-20.312 8.9844 0 15.625 0.39062v-7.4219q-6.6406 0.39062-16.406 0.39062-0.78125-3.9062-1.5625-7.4219 3.5156-2.7344 7.6094-6.0625 4.1094-3.3125 11.531-10.734-3.9062-2.3438-7.0312-6.6406-3.5156 5.8594-7.2344 9.5625-3.7031 3.7188-7.2188 6.8438-2.7344-7.0312-6.8438-13.672-4.0938-6.6406-9.1719-12.5zm39.844 77.734h35.547q-0.39062-7.4219-0.39062-14.062v-40.625q0-7.4219 0.39062-15.234h-8.2031v10.547h-19.141v-13.281h-8.2031q0.39062 8.5938 0.39062 16.797v41.797q0 6.6406-0.39062 14.062zm8.2031-6.25v-46.875h19.141v46.875z"/>
      <path id="SimHei-26426" d="m28.125 37.891q2.3438 1.9531 5.4688 4.2969 6.25-8.5938 9.375-13.281-2.7344-2.3438-6.6406-5.0781-2.3438 5.0781-8.2031 13.672v-28.516q0-7.8125 0.39062-17.578h-8.2031q0.39062 9.7656 0.39062 17.578v25q-1.9531-5.8594-4.2969-11.141-2.3438-5.2656-6.6406-11.906-3.5156 3.9062-6.25 6.25 3.125 3.5156 8.2031 13.672t7.8125 22.656h-2.3438q-5.4688 0-10.938-0.78125v7.4219q5.4688-0.39062 10.547-0.39062h3.9062v7.8125q0 6.25-0.39062 11.719h8.5938q-0.78125-3.9062-0.78125-11.719v-7.8125h4.2969q4.2969 0 9.7656 0.39062v-7.0312q-8.5938 0.39062-14.062 0.39062zm21.484 36.328h30.469q-0.39062-10.938-0.39062-18.75v-50.781q0-5.0781 1.5625-5.4688t3.3125-0.1875q1.7656 0.1875 2.3438 2.7188 0.59375 2.5469 0.59375 7.625 3.125-1.9531 7.8125-3.125-1.5625-8.2031-3.5156-10.938t-5.0781-2.9219q-3.125-0.20312-7.0312 0-3.9062 0.1875-5.8594 2.3438-1.9531 2.1406-1.5625 8.7812v64.062h-14.844q0-22.266-0.59375-34.578-0.57812-12.297-3.5156-22.266-2.9219-9.9531-11.516-20.109-1.9531 2.3438-7.0312 6.25 5.4688 4.2969 8.7812 10.547 3.3281 6.25 4.5 12.891t1.5625 14.062 0.39062 18.938q0 11.531-0.39062 20.906z"/>
      <path id="SimHei-25214" d="m27.734 36.719q3.5156 1.5625 8.2031 3.5156 0-3.125 0.39062-7.0312-4.2969-1.5625-8.5938-3.9062v-26.562q0-6.25-3.3281-8-3.3125-1.7656-12.688-1.7656-0.78125 4.2969-1.9531 8.5938 6.6406-0.39062 8.5938 0t1.9531 3.9062v21.484q-8.5938-3.9062-12.891-6.25-1.1719 4.2969-2.7344 8.5938 4.2969 1.1719 15.625 5.0781v16.016q-9.375 0-13.281-0.39062v7.0312q3.5156-0.39062 13.281-0.39062 0 12.5-0.39062 21.875h8.2031q-0.39062-8.5938-0.39062-21.875 3.9062 0 9.7656 0.39062v-7.0312q-5.8594 0.39062-9.7656 0.39062zm51.953 5.4688q3.9062-4.2969 7.4219-6.25-12.109-14.844-17.969-21.484 6.25-10.938 10.547-12.891t5.2656 2.3438q0.98438 4.2969 1.7656 8.5938 4.6875-3.5156 8.2031-4.6875-3.125-9.7656-5.2812-12.891-2.1406-3.125-6.0469-3.5156t-10.359 5.4688q-6.4375 5.8594-9.1719 12.109-5.8594-4.6875-10.938-8.0156-5.0781-3.3125-10.938-6.4375-2.3438 3.9062-5.8594 7.4219 6.25 1.9531 13.281 5.6562 7.0312 3.7188 11.328 8.4062-3.9062 9.7656-5.8594 26.562-6.25-1.1719-15.234-3.125-0.78125 3.9062-1.9531 7.4219 8.2031 0.78125 16.016 2.3438-1.1719 8.5938-1.9531 29.688 4.2969 0 9.375 0-0.78125-19.922 0.39062-28.125 14.062 2.3438 28.125 5.0781 0.39062-3.5156 1.1719-7.0312-15.625-2.3438-28.516-4.6875 1.5625-14.062 4.2969-22.266 9.375 11.328 12.891 20.312zm-10.938 29.688q2.7344 1.9531 5.8594 3.9062 7.4219-9.375 9.375-12.891-3.5156-1.9531-5.8594-4.2969-1.9531 3.125-9.375 13.281z"/>
      <path id="SimHei-21040" d="m56.641 10.547q-0.78125-3.9062-1.1719-7.4219-20.703-2.7344-31.641-4.6875t-15.234-3.5156q-1.1719 5.0781-2.7344 9.375 6.6406 0.39062 10.938 0.78125t10.156 1.1719v14.453h-5.0781q-7.4219 0-12.5-0.39062v7.0312q6.25-0.39062 11.328-0.39062h6.25v12.5q-7.4219-0.39062-10.547-0.78125t-6.6406-1.1719q-0.78125 4.6875-2.3438 8.5938 5.8594 1.5625 10.734 7.6094 4.8906 6.0625 7.625 13.484h-6.25q-6.25 0-11.719-0.39062v7.0312q5.8594-0.39062 11.328-0.39062h23.828q6.6406 0 11.719 0.39062v-7.0312q-5.4688 0.39062-11.719 0.39062h-17.188q2.3438-1.9531 8.2031-5.0781-3.125-2.7344-6.4531-7.2344-3.3125-4.4844-8-9.5625 13.281 0.78125 25 1.5625-3.125 4.6875-6.6406 9.7656 3.5156 1.9531 6.6406 3.9062 3.5156-5.0781 6.8281-9.9688 3.3281-4.875 6.4531-9.1719-3.5156-2.3438-7.4219-4.6875-1.5625 2.7344-2.7344 4.2969-7.8125-0.78125-13.281-1.1719v-12.891h7.4219q6.25 0 10.938 0.39062v-7.0312q-5.0781 0.39062-10.547 0.39062h-7.8125v-13.672q10.938 1.5625 22.266 3.5156zm5.8594 56.25h8.5938q-0.78125-5.0781-0.78125-13.672v-28.125q0-7.8125 0.39062-13.281h-8.2031q0.39062 5.4688 0.39062 13.281v29.688q0 7.4219-0.39062 12.109zm18.75 12.109h8.2031q-0.39062-5.8594-0.39062-12.891v-61.719q0-8.5938-3.3281-10.156-3.3125-1.5625-13.469-3.5156-1.1719 5.0781-3.5156 9.375 7.8125 0 10.344 0.39062 2.5469 0.39062 2.5469 6.25v59.375q0 8.2031-0.39062 12.891z"/>
      <path id="SimHei-20998" d="m45.312 33.594q-0.78125-8.9844-2.9375-15.625-2.1406-6.6406-6.0469-11.328t-8.9844-8.2031-10.547-6.6406q-2.7344 4.2969-7.0312 7.0312 6.25 2.3438 10.938 5.0781t8.3906 6.6406q3.7188 3.9062 5.6719 9.1719 1.9531 5.2812 2.7344 13.875-8.5938 0-12.891-0.39062v7.4219q5.4688-0.39062 14.062-0.39062h37.891q-0.78125-5.0781-1.1719-8.9844l-3.125-26.953q-0.78125-7.8125-5.8594-9.375t-11.328-2.7344q-1.1719 5.0781-3.9062 9.7656 7.4219 0 10.156 0.39062t3.5156 5.4688l2.7344 25.781zm-8.2031 43.359q4.2969-2.3438 8.9844-4.2969-2.3438-2.3438-5.4688-7.2344-3.125-4.875-7.2344-10.547-4.0938-5.6562-8.9844-11.516-4.875-5.8594-10.344-10.938-3.9062 3.9062-8.5938 6.25 6.6406 4.2969 11.516 8.9844 4.8906 4.6875 10.156 11.906 5.2812 7.2344 9.9688 17.391zm19.141-0.39062q4.2969 0.78125 8.2031 1.9531 1.1719-5.0781 4.0938-10.75 2.9375-5.6562 7.2344-10.938 4.2969-5.2656 9.375-9.1719t10.156-5.4688q-4.2969-2.7344-7.4219-8.5938-6.6406 5.0781-11.328 9.7656t-7.625 8.5938q-2.9219 3.9062-6.6406 10.734-3.7031 6.8438-6.0469 13.875z"/>
      <path id="SimHei-30028" d="m25.391 70.312v-10.547h21.094v10.547zm0-16.797v-10.547h21.094v10.547zm28.516 16.797v-10.547h21.484v10.547zm0-16.797v-10.547h21.484v10.547zm-36.328 23.047h65.625q-0.39062-5.0781-0.39062-15.234v-10.547q0-5.8594 0.39062-14.062h-18.359q7.0312-6.6406 13.281-8.7969 6.25-2.1406 16.406-3.3125-2.7344-4.2969-4.2969-8.5938-7.0312 1.9531-11.719 3.7031-4.6875 1.7656-8.9844 4.5-0.39062-3.5156-0.39062-8.9844v-10.547q0-3.9062 0.39062-12.5h-8.2031q0.39062 8.5938 0.39062 13.672v10.547q0 6.25-0.39062 10.156h5.0781q-5.4688 3.9062-10.156 10.156h-12.5q-3.9062-5.4688-9.375-9.7656 3.5156-0.39062 9.375-1.1719-1.9531-3.125-2.5469-8.4062-0.57812-5.2656-2.5312-9.9531t-6.4531-9.1719q-4.4844-4.5-13.469-8.4062-1.5625 3.9062-5.8594 7.4219 9.375 2.3438 13.672 6.4375 4.2969 4.1094 6.0469 9.1875 1.7656 5.0781 1.7656 14.062-10.547-7.4219-24.219-12.891-1.5625 3.5156-5.0781 7.0312 8.2031 2.3438 16.203 5.8594 8.0156 3.5156 13.484 9.7656h-17.188q0.39062 8.2031 0.39062 14.453v10.156q0 8.2031-0.39062 15.234z"/>
      <path id="SimHei-32447" d="m22.266 80.078q3.9062-2.7344 8.9844-4.2969-3.9062-3.5156-7.625-9.9688-3.7031-6.4375-9.5625-15.812 8.9844 0.39062 12.5 0.39062 3.5156 5.8594 5.8594 12.891 3.9062-2.7344 8.5938-4.2969-3.9062-3.9062-7.8125-10.547t-14.062-22.656q10.547 0.78125 18.359 1.5625-1.1719-3.9062-1.1719-6.6406-2.7344 0-11.719-0.98438-8.9844-0.96875-14.844-2.5312-0.39062 3.9062-2.3438 8.2031 4.6875 1.1719 8.3906 6.25 3.7188 5.0781 8.0156 12.891-12.5-0.78125-16.016-3.125-1.1719 4.2969-3.125 8.5938 4.6875 3.5156 9.375 11.516 4.6875 8.0156 8.2031 18.562zm-16.797-73.047q10.547 1.1719 16.203 2.1406 5.6719 0.98438 18.953 4.1094-0.39062-4.2969 0-6.6406-9.375-1.9531-17-3.9062-7.6094-1.9531-14.25-4.2969-1.1719 4.2969-3.9062 8.5938zm75.781 59.375q-3.5156-1.5625-6.25-3.9062-2.7344 4.2969-7.0312 10.156 2.7344 1.5625 5.8594 3.125 1.5625-1.9531 7.4219-9.375zm-42.188-14.453q3.9062 0 14.844 2.3438 0 7.0312 0 12.688 0 5.6719-1.1719 12.703 4.6875-0.39062 10.156-1.1719-1.1719-2.3438-1.5625-7.625-0.39062-5.2656 0-15.031l12.891 2.3438q6.6406 1.5625 12.891 3.5156l1.5625-7.4219q-6.6406-0.78125-13.281-1.9531l-13.672-2.7344q0-6.25 0.78125-10.938l14.844 2.7344q7.4219 1.5625 14.453 3.9062l1.1719-7.4219q-7.0312-1.1719-14.453-2.7344l-14.844-2.7344q0.78125-7.8125 3.9062-14.453 3.125 2.7344 6.4375 6.25 3.3281 3.5156 6.0625 7.8125 5.4688-4.6875 8.5938-6.25-5.0781-2.3438-7.8125-5.2812-2.7344-2.9219-9.375-9.1719 4.6875-7.8125 8.2031-9.9688 3.5156-2.1406 5.0781-0.1875t2.7344 8.2031q3.5156-2.7344 7.8125-4.2969-6.25-17.188-13.875-13.859-7.6094 3.3125-15.812 15.422-5.4688-4.2969-10.547-8-5.0781-3.7188-12.5-7.625-1.9531 3.9062-5.8594 7.0312 7.4219 2.7344 12.891 5.8594t12.109 8.9844q-3.5156 7.8125-5.0781 18.359-11.328-1.9531-15.625-3.5156l-1.1719 7.4219q4.2969 0 15.625 2.3438-0.78125 6.25-0.78125 10.547-10.547-2.3438-14.062-3.5156z"/>
     </defs>
     <g transform="translate(264.93 209.78) scale(.14 -.14)">
      <use xlink:href="#SimHei-24863"/>
      <use x="100" xlink:href="#SimHei-30693"/>
      <use x="200" xlink:href="#SimHei-26426"/>
      <use x="300" xlink:href="#SimHei-25214"/>
      <use x="400" xlink:href="#SimHei-21040"/>
      <use x="500" xlink:href="#SimHei-30340"/>
      <use x="600" xlink:href="#SimHei-20998"/>
      <use x="700" xlink:href="#SimHei-30028"/>
      <use x="800" xlink:href="#SimHei-32447"/>
     </g>
    </g>
   </g>
   <g id="patch_8">
    <path d="m224.29 194.4v-194.18" fill="none" stroke="#000" stroke-linecap="square" stroke-width=".8"/>
   </g>
   <g id="patch_9">
    <path d="m431.57 194.4v-194.18" fill="none" stroke="#000" stroke-linecap="square" stroke-width=".8"/>
   </g>
   <g id="patch_10">
    <path d="m224.29 194.4h207.28" fill="none" stroke="#000" stroke-linecap="square" stroke-width=".8"/>
   </g>
   <g id="patch_11">
    <path d="m224.29 0.216h207.28" fill="none" stroke="#000" stroke-linecap="square" stroke-width=".8"/>
   </g>
  </g>
 </g>
 <defs>
  <clipPath id="p176aafc6b7">
   <rect x=".432" y=".216" width="207.28" height="194.18"/>
  </clipPath>
  <clipPath id="p74dbf3c2f9">
   <rect x="224.29" y=".216" width="207.28" height="194.18"/>
  </clipPath>
 </defs>
</svg>
